<svg xmlns="http://www.w3.org/2000/svg" width="25.091" height="21.772" viewBox="0 0 25.091 21.772">
  <g id="Wishlist" transform="translate(-317.768 -218.324)">
    <g id="Group_4" data-name="Group 4" transform="translate(415 440.629)">
      <g id="Group_83" data-name="Group 83" transform="translate(-95.5 -225.497)">
        <path id="Path_74" data-name="Path 74" d="M311.1,126.651v-.266a6.516,6.516,0,0,1,11.137-4.6l.452.452a.162.162,0,0,0,.213,0l.4-.425a6.676,6.676,0,0,1,5.741-1.834,6.533,6.533,0,0,1,5.449,6.432v.266a6.839,6.839,0,0,1-2.18,5l-8.24,7.708a1.807,1.807,0,0,1-1.914.372,2.014,2.014,0,0,1-.665-.425l-8.213-7.655a6.884,6.884,0,0,1-2.18-5.024Z" transform="translate(-311.982 -115.802)" fill="none" stroke="#414141" stroke-width="1.7"/>
      </g>
    </g>
  </g>
</svg>