<svg xmlns="http://www.w3.org/2000/svg" width="10.075" height="16.533" viewBox="0 0 10.075 16.533">
  <g id="Group_163" data-name="Group 163" transform="translate(-243.712 -340.294)">
    <path id="Path_183" data-name="Path 183" d="M253.012,355.817a.252.252,0,0,1-.153.233c-.153.072-.251-.045-.35-.126-.548-.494-1.086-.988-1.634-1.481q-3.057-2.761-6.123-5.512c-.4-.359-.386-.4.018-.754q3.784-3.394,7.559-6.805a3.354,3.354,0,0,1,.269-.233.266.266,0,0,1,.368.018c.126.126.045.26-.054.35-.323.305-.664.6-1,.907-2.164,1.948-4.318,3.905-6.491,5.845-.305.269-.251.4.018.637,2.451,2.191,4.884,4.4,7.326,6.6C252.868,355.584,253,355.665,253.012,355.817Z" fill="#fff" stroke="#fff" stroke-width="1.5"/>
  </g>
</svg>
