<svg xmlns="http://www.w3.org/2000/svg" fill="#e01c30" viewBox="0 0 80 80"><path d="M23.41 49.22A59.16 59.16 0 0 0 43.17 64.7 30.81 30.81 0 0 0 54.23 68H55a9.16 9.16 0 0 0 7.1-3l.05-.06a30.33 30.33 0 0 1 2.24-2.32l1.63-1.63a5.6 5.6 0 0 0 0-8.34l-7-7a5.66 5.66 0 0 0-4.02-1.9 5.84 5.84 0 0 0-4.13 1.87l-4.15 4.15-1.15-.6-1.28-.7a43.82 43.82 0 0 1-10.5-9.56 25.33 25.33 0 0 1-3.55-5.66l3.1-3 1.07-1.08A5.94 5.94 0 0 0 36.29 25a5.94 5.94 0 0 0-1.92-4.18l-3.46-3.45-1.19-1.21-2.35-2.33A5.81 5.81 0 0 0 23.28 12a6 6 0 0 0-4.13 1.8l-4.34 4.34a8.92 8.92 0 0 0-2.65 5.71 21.51 21.51 0 0 0 1.61 9.28 53.89 53.89 0 0 0 9.64 16.09zM15 24.09a6.14 6.14 0 0 1 1.84-3.94l4.32-4.32a3.11 3.11 0 0 1 2.13-1 3 3 0 0 1 2.09 1l2.3 2.28 1.21 1.23 3.45 3.46a3.15 3.15 0 0 1 1.09 2.2 3.18 3.18 0 0 1-1.1 2.17l-1.07 1.09-3.21 3.11-.06.05a2.28 2.28 0 0 0-.58 2.58.36.36 0 0 1 0 .09 27.13 27.13 0 0 0 4.07 6.63A46.55 46.55 0 0 0 42.71 50.9a16.42 16.42 0 0 0 1.53.83 13.87 13.87 0 0 1 1.28.7l.12.07a2.56 2.56 0 0 0 1.13.29A2.46 2.46 0 0 0 48.5 52l4.34-4.34a3.07 3.07 0 0 1 2.12-1 2.93 2.93 0 0 1 2.06 1l7 7c1.39 1.4 1.38 2.9 0 4.38l-1.55 1.54a32.28 32.28 0 0 0-2.47 2.5 6.38 6.38 0 0 1-5 2.11h-.6a27.88 27.88 0 0 1-10-3 56.29 56.29 0 0 1-18.78-14.75 51.73 51.73 0 0 1-9.17-15.26A18.59 18.59 0 0 1 15 24.09z"></path></svg>