<svg xmlns="http://www.w3.org/2000/svg" width="24" height="23.409" viewBox="0 0 24 23.409">
  <g id="Group_21" data-name="Group 21" transform="translate(-9.04 -9.73)">
    <path id="Path_17" data-name="Path 17" d="M24.771,57.26a2.511,2.511,0,1,0,2.511,2.511,2.511,2.511,0,0,0-2.511-2.511Zm0,3.9a1.393,1.393,0,1,1,.987-.407A1.393,1.393,0,0,1,24.771,61.163Z" transform="translate(-8.106 -29.143)" fill="#d2232a"/>
    <path id="Path_18" data-name="Path 18" d="M52.161,57.26a2.511,2.511,0,1,0,2.511,2.511A2.511,2.511,0,0,0,52.161,57.26Zm0,3.9a1.393,1.393,0,1,1,.987-.407A1.393,1.393,0,0,1,52.161,61.163Z" transform="translate(-24.899 -29.143)" fill="#d2232a"/>
    <path id="Path_19" data-name="Path 19" d="M32.925,13.479a.716.716,0,0,0-.449-.224l-18.151-.248-.5-1.547a2.565,2.565,0,0,0-2.4-1.729H9.555a.561.561,0,0,0,0,1.118h1.869a1.447,1.447,0,0,1,1.339.975L16.305,22.5l-.282.638a2.681,2.681,0,0,0,.251,2.426,2.58,2.58,0,0,0,2.093,1.161H29.2a.557.557,0,1,0,0-1.114H18.367a1.424,1.424,0,0,1-1.161-.669,1.547,1.547,0,0,1-.139-1.339l.224-.5,11.737-1.226a3.064,3.064,0,0,0,2.65-2.344l1.331-5.579a.472.472,0,0,0-.085-.476Zm-2.344,5.83a1.9,1.9,0,0,1-1.7,1.478l-11.606,1.2-2.588-7.865,17.1.251Z" transform="translate(0 0)" fill="#d2232a"/>
  </g>
</svg>