<svg id="close_v1" xmlns="http://www.w3.org/2000/svg" width="18" height="18" viewBox="0 0 18 18">
  <circle id="Ellipse_8" data-name="Ellipse 8" cx="9" cy="9" r="9" fill="#333"/>
  <g id="Group_77" data-name="Group 77" transform="translate(5 5)">
    <path id="Path_66" data-name="Path 66" d="M122.237,88.717l-7.206,6.942a.229.229,0,0,1-.316,0h0a.21.21,0,0,1,0-.3l7.206-6.942a.229.229,0,0,1,.316,0h0A.21.21,0,0,1,122.237,88.717Z" transform="translate(-114.65 -88.23)" fill="#4c4c4c" stroke="#4c4c4c" stroke-width="1" opacity="0.2"/>
    <path id="Path_67" data-name="Path 67" d="M121.366,95.779l-6.656-7.055a.228.228,0,0,1,0-.309h0a.2.2,0,0,1,.292,0l6.656,7.055a.228.228,0,0,1,0,.309h0A.2.2,0,0,1,121.366,95.779Z" transform="translate(-114.65 -87.568)" fill="#4c4c4c" stroke="#4c4c4c" stroke-width="1" opacity="0.2"/>
    <path id="Path_66-2" data-name="Path 66" d="M122.747,88.754l-7.69,7.642a.239.239,0,0,1-.337,0h0a.236.236,0,0,1,0-.335l7.69-7.642a.239.239,0,0,1,.337,0h0A.236.236,0,0,1,122.747,88.754Z" transform="translate(-114.65 -88.191)" fill="#fff" stroke="#fff" stroke-width="0.5"/>
    <path id="Path_67-2" data-name="Path 67" d="M122.41,96.4l-7.69-7.642a.236.236,0,0,1,0-.335h0a.239.239,0,0,1,.337,0l7.69,7.642a.236.236,0,0,1,0,.335h0A.239.239,0,0,1,122.41,96.4Z" transform="translate(-114.65 -88.35)" fill="#fff" stroke="#fff" stroke-width="0.5"/>
  </g>
</svg>
