<svg xmlns="http://www.w3.org/2000/svg" width="21.316" height="16.422" viewBox="0 0 21.316 16.422">
  <g id="Credit-card" transform="matrix(0.985, -0.174, 0.174, 0.985, -1.737, -6.496)">
    <path id="Path_469" data-name="Path 469" d="M9.259,38.579h3.62a.32.32,0,1,0,0-.64H9.259a.32.32,0,0,0,0,.64Z" transform="translate(-6.243 -19.512)" fill="#333"/>
    <path id="Path_470" data-name="Path 470" d="M9.259,43.579h3.62a.32.32,0,1,0,0-.64H9.259a.32.32,0,0,0,0,.64Z" transform="translate(-6.243 -23.004)" fill="#333"/>
    <path id="Path_471" data-name="Path 471" d="M18.392,10H.912A.92.92,0,0,0,0,10.926V22.346a.92.92,0,0,0,.912.926h17.48a.92.92,0,0,0,.912-.926V10.926A.92.92,0,0,0,18.392,10ZM18.7,22.346a.312.312,0,0,1-.309.314H.912A.312.312,0,0,1,.6,22.346V15.412H18.7Zm0-7.549H.6V12.962H18.7Zm0-2.45H.6v-1.42a.312.312,0,0,1,.309-.314h17.48a.312.312,0,0,1,.309.314v1.42Z" transform="translate(0)" fill="#333"/>
    <path id="Path_472" data-name="Path 472" d="M35.791,38.609a1.817,1.817,0,0,0,1.508-.8,1.818,1.818,0,1,0,0-2.027,1.817,1.817,0,1,0-1.508,2.831Zm3.016-3.016a1.2,1.2,0,1,1-1.2,1.2A1.2,1.2,0,0,1,38.808,35.593Zm-3.016,0a1.2,1.2,0,1,1-1.2,1.2A1.2,1.2,0,0,1,35.791,35.593Z" transform="translate(-23.726 -17.441)" fill="#333"/>
  </g>
</svg>
