<svg xmlns="http://www.w3.org/2000/svg" width="23.538" height="26.302" viewBox="0 0 23.538 26.302">
  <g id="Callback" transform="translate(-12.798 -11.612)">
    <g id="Group_82" data-name="Group 82" transform="translate(13.048 11.862)">
      <path id="Path_26" data-name="Path 26" d="M23.037,12.585A11.518,11.518,0,1,0,0,12.585v4.7H.047v.369A5.506,5.506,0,0,0,5.53,23.182h0V12.125H5.484A5.34,5.34,0,0,0,.923,14.613V12.585a10.6,10.6,0,1,1,21.194,0v2.028a5.508,5.508,0,0,0-4.561-2.488H17.51V23.182h.046A4.459,4.459,0,0,0,18.892,23a10.717,10.717,0,0,1-5.022,2.719V24.1H9.217v2.764h4.607v-.184a11.438,11.438,0,0,0,7.142-4.7,5.6,5.6,0,0,0,2.073-4.331v-.369h0v-4.7Zm-18.43.553v9.03a4.609,4.609,0,0,1,0-9.031ZM12.9,25.947H10.136v-.922H12.9Zm5.529-3.779v-9.03a4.609,4.609,0,0,1,0,9.031Z" transform="translate(-0.001 -1.067)" fill="#6E6E6E " stroke="#6E6E6E " stroke-width="0.5"/>
    </g>
  </g>
</svg>