<svg xmlns="http://www.w3.org/2000/svg" width="261.257" height="23.493" viewBox="0 0 261.257 23.493">
  <g id="Group_57" data-name="Group 57" transform="translate(-91.5 -60)">
    <g id="Group_55" data-name="Group 55" transform="translate(91.5 64.593)">
      <g id="Group_54" data-name="Group 54">
        <g id="Group_51" data-name="Group 51">
          <path id="Path_35" data-name="Path 35" d="M152.144,65.6l-2.385,13.69h-6.271l-6.977-8.655-1.5,8.655H131.3l2.473-13.69h5.388l7.684,9.362,1.59-9.362Z" transform="translate(-96.148 -65.247)" fill="#d7151d"/>
          <path id="Path_36" data-name="Path 36" d="M174.3,65.6l-1.59,9.185c-.53,3.18-3.974,4.769-9.1,4.769-6.8,0-8.655-1.59-8.126-4.769l1.59-9.185H163l-1.5,8.479c-.177,1.236-.088,2.031.353,2.473a3.921,3.921,0,0,0,2.738.707c2.65,0,4.239-1.06,4.593-3.268l1.5-8.391H174.3Z" transform="translate(-98.963 -65.247)" fill="#d7151d"/>
          <path id="Path_37" data-name="Path 37" d="M176.4,79.29l2.385-13.69h9.627c4.681,0,6.182,1.148,5.829,3.356-.265,1.59-1.855,2.65-4.769,3.091,3.268.442,4.769,1.678,4.416,3.621-.442,2.473-2.915,3.621-7.507,3.621Zm7.419-8.567h1.855c1.678,0,2.65-.618,2.826-1.678.177-.883-.618-1.413-2.385-1.413h-1.678Zm-1.148,6.624h1.678c2.208,0,3.445-.53,3.709-2.208.353-1.943-.707-2.385-3-2.385h-1.59Z" transform="translate(-101.415 -65.247)" fill="#d7151d"/>
          <path id="Path_38" data-name="Path 38" d="M213.333,65.6l-.618,2.65h-7.154l-.53,2.826h6.182l-.618,2.738h-6.006l-.53,2.826h7.331l-.618,2.65H197.7l2.385-13.69Z" transform="translate(-103.903 -65.247)" fill="#d7151d"/>
          <path id="Path_39" data-name="Path 39" d="M122.535,79.29h5.918L125.185,65.6h-6.006L110.7,79.29h3.18l1.59-2.65h6.447ZM116.618,74.7l3.533-5.829,1.325,5.829Z" transform="translate(-93.742 -65.247)" fill="#d7151d"/>
          <path id="Path_40" data-name="Path 40" d="M223.415,65.6h5.123l-1.06,5.034h6.271l1.06-5.034h5.741l-2.826,13.69h-5.829l1.148-5.3h-6.271l-1.148,5.3H220.5Z" transform="translate(-106.566 -65.247)" fill="#2b2523"/>
          <path id="Path_41" data-name="Path 41" d="M258.628,77.212a12.254,12.254,0,0,1-7.861,2.385c-6.712,0-8.479-3.091-7.6-7.242a8.4,8.4,0,0,1,3.8-5.653c1.5-.972,3.356-1.5,6.8-1.5,6.712,0,8.479,3.091,7.6,7.242a7.437,7.437,0,0,1-2.738,4.769m-5.476-8.92c-1.855,0-3.533,1.325-4.151,4.063-.618,2.826.53,4.063,2.385,4.063s3.533-1.325,4.151-4.063-.442-4.063-2.385-4.063" transform="translate(-109.189 -65.2)" fill="#2b2523"/>
          <path id="Path_42" data-name="Path 42" d="M266.615,65.6h8.744l.972,9.185h0l4.681-9.185h8.832l-2.915,13.69h-5.388l2.208-10.334h0L277.743,79.29h-5.564l-1.325-10.334h0L268.646,79.29H263.7Z" transform="translate(-111.611 -65.247)" fill="#2b2523"/>
          <path id="Path_43" data-name="Path 43" d="M294.615,65.6h13.072l-.618,2.915h-7.507l-.53,2.473H306.1l-.618,2.915h-7.066l-.53,2.473h7.6l-.618,2.915H291.7Z" transform="translate(-114.881 -65.247)" fill="#2b2523"/>
          <path id="Path_44" data-name="Path 44" d="M102.54,65.3h-2.208l-.353,2.031h1.148c3.356,0,3.356,2.738,3,4.946a6.369,6.369,0,0,1-1.5,3.709,3.854,3.854,0,0,1-3.268,1.236h-1.59L99.979,65.3H97.771l-.53,4.063H95.386L94.768,72.9H92.736L91.5,79.343h8.3c6.359,0,9.98-2.3,10.775-6.977.795-4.769-1.855-7.066-8.037-7.066" transform="translate(-91.5 -65.212)" fill="#d7151d"/>
        </g>
        <g id="Group_53" data-name="Group 53" transform="translate(195.543 10.599)">
          <g id="Group_52" data-name="Group 52">
            <path id="Path_45" data-name="Path 45" d="M312.9,81.351a4.146,4.146,0,0,1,4.151-4.151,4.2,4.2,0,0,1,4.151,4.151,4.146,4.146,0,0,1-4.151,4.151A4.264,4.264,0,0,1,312.9,81.351Z" transform="translate(-312.9 -77.2)" fill="#d7151d"/>
          </g>
        </g>
      </g>
    </g>
    <g id="Group_56" data-name="Group 56" transform="translate(288.235 60)">
      <path id="Path_46" data-name="Path 46" d="M351.415,68.6a2.687,2.687,0,0,0-2.12.972,4.807,4.807,0,0,0-.795,3.091,4.807,4.807,0,0,0,.795,3.091,2.742,2.742,0,0,0,2.208.972,2.685,2.685,0,0,0,2.208-.883,5.338,5.338,0,0,0,.795-3.356,4.42,4.42,0,0,0-.795-2.915A3.062,3.062,0,0,0,351.415,68.6Z" transform="translate(-318.25 -61.004)" fill="#d7151d"/>
      <path id="Path_47" data-name="Path 47" d="M374.794,60H321.978a3.9,3.9,0,0,0-3.621,2.3l-3.71,7.861a4.124,4.124,0,0,0,0,3.533v.088a5.562,5.562,0,0,1,4.151-.353,6.082,6.082,0,0,1,2.738,10.069h53.169a4.052,4.052,0,0,0,4.063-4.063V64.063A3.923,3.923,0,0,0,374.794,60Zm-37.36,16.869a5.78,5.78,0,0,1-2.12,1.678,7.942,7.942,0,0,1-3.18.53,9.1,9.1,0,0,1-3.8-.707,5.961,5.961,0,0,1-2.561-2.385,8.057,8.057,0,0,1-1.06-4.328,7.614,7.614,0,0,1,1.855-5.476,7.209,7.209,0,0,1,5.3-1.943,7.534,7.534,0,0,1,4.239,1.06,6.361,6.361,0,0,1,2.3,3.356l-3.886.883a3.385,3.385,0,0,0-.442-.972,2.5,2.5,0,0,0-.883-.795,2.821,2.821,0,0,0-1.236-.265,2.664,2.664,0,0,0-2.3,1.236,4.791,4.791,0,0,0-.618,2.826,5.762,5.762,0,0,0,.707,3.268,2.335,2.335,0,0,0,2.031.883,2.6,2.6,0,0,0,1.943-.707,4.842,4.842,0,0,0,.972-2.031l3.886,1.148A6.426,6.426,0,0,1,337.434,76.869Zm16.6-1.237a5.581,5.581,0,0,1-2.473,2.473,7.788,7.788,0,0,1-3.974.883,8.848,8.848,0,0,1-3.974-.795,5.76,5.76,0,0,1-2.561-2.473,8.483,8.483,0,0,1-.972-4.151,7.423,7.423,0,0,1,1.943-5.476,8.563,8.563,0,0,1,10.863,0,7.078,7.078,0,0,1,1.943,5.388A9.138,9.138,0,0,1,354.039,75.633Zm18.989,3.18h-3.621V67.861L366.58,78.812h-3.268l-2.738-10.952V78.812h-3.621V64.5h5.829l2.208,8.744L367.2,64.5h5.829V78.812Z" transform="translate(-314.25 -60)" fill="#d7151d"/>
    </g>
  </g>
</svg>
