 <svg xmlns="http://www.w3.org/2000/svg" width="295.804" height="26.6" viewBox="0 0 295.804 26.6">
                <g id="Group_57" data-name="Group 57" transform="translate(-91.5 -60)">
                    <g id="Group_55" data-name="Group 55">
                        <g id="Group_54" data-name="Group 54">
                            <g id="Group_51" data-name="Group 51">
                                <path id="Path_35" data-name="Path 35" d="M154.9,65.6l-2.7,15.5h-7.1l-7.9-9.8-1.7,9.8h-4.2l2.8-15.5h6.1l8.7,10.6,1.8-10.6Z" fill="#d7151d" />
                                <path id="Path_36" data-name="Path 36" d="M176.8,65.6,175,76c-.6,3.6-4.5,5.4-10.3,5.4-7.7,0-9.8-1.8-9.2-5.4l1.8-10.4H164l-1.7,9.6c-.2,1.4-.1,2.3.4,2.8a4.439,4.439,0,0,0,3.1.8c3,0,4.8-1.2,5.2-3.7l1.7-9.5h4.1Z" fill="#d7151d" />
                                <path id="Path_37" data-name="Path 37" d="M176.4,81.1l2.7-15.5H190c5.3,0,7,1.3,6.6,3.8-.3,1.8-2.1,3-5.4,3.5,3.7.5,5.4,1.9,5,4.1-.5,2.8-3.3,4.1-8.5,4.1Zm8.4-9.7h2.1c1.9,0,3-.7,3.2-1.9.2-1-.7-1.6-2.7-1.6h-1.9Zm-1.3,7.5h1.9c2.5,0,3.9-.6,4.2-2.5.4-2.2-.8-2.7-3.4-2.7h-1.8Z" fill="#d7151d" />
                                <path id="Path_38" data-name="Path 38" d="M215.4,65.6l-.7,3h-8.1l-.6,3.2h7l-.7,3.1h-6.8l-.6,3.2h8.3l-.7,3H197.7l2.7-15.5Z" fill="#d7151d" />
                                <path id="Path_39" data-name="Path 39" d="M124.1,81.1h6.7l-3.7-15.5h-6.8l-9.6,15.5h3.6l1.8-3h7.3Zm-6.7-5.2,4-6.6,1.5,6.6Z" fill="#d7151d" />
                                <path id="Path_40" data-name="Path 40" d="M223.8,65.6h5.8l-1.2,5.7h7.1l1.2-5.7h6.5L240,81.1h-6.6l1.3-6h-7.1l-1.3,6h-5.8Z" fill="#2b2523" />
                                <path id="Path_41" data-name="Path 41" d="M260.7,78.8a13.874,13.874,0,0,1-8.9,2.7c-7.6,0-9.6-3.5-8.6-8.2a9.515,9.515,0,0,1,4.3-6.4c1.7-1.1,3.8-1.7,7.7-1.7,7.6,0,9.6,3.5,8.6,8.2a8.42,8.42,0,0,1-3.1,5.4m-6.2-10.1c-2.1,0-4,1.5-4.7,4.6-.7,3.2.6,4.6,2.7,4.6s4-1.5,4.7-4.6-.5-4.6-2.7-4.6" fill="#2b2523" />
                                <path id="Path_42" data-name="Path 42" d="M267,65.6h9.9L278,76h0l5.3-10.4h10L290,81.1h-6.1l2.5-11.7h0l-6.8,11.7h-6.3l-1.5-11.7h0l-2.5,11.7h-5.6Z" fill="#2b2523" />
                                <path id="Path_43" data-name="Path 43" d="M295,65.6h14.8l-.7,3.3h-8.5l-.6,2.8h8l-.7,3.3h-8l-.6,2.8h8.6l-.7,3.3H291.7Z" fill="#2b2523" />
                                <path id="Path_44" data-name="Path 44" d="M104,65.3h-2.5l-.4,2.3h1.3c3.8,0,3.8,3.1,3.4,5.6a7.211,7.211,0,0,1-1.7,4.2,4.364,4.364,0,0,1-3.7,1.4H98.6l2.5-13.5H98.6L98,69.9H95.9l-.7,4H92.9l-1.4,7.3h9.4c7.2,0,11.3-2.6,12.2-7.9.9-5.4-2.1-8-9.1-8" fill="#d7151d" />
                            </g>
                            <g id="Group_53" data-name="Group 53">
                                <g id="Group_52" data-name="Group 52">
                                    <path id="Path_45" data-name="Path 45" d="M312.9,81.9a4.7,4.7,0,0,1,4.7-4.7,4.76,4.76,0,0,1,4.7,4.7,4.7,4.7,0,0,1-4.7,4.7A4.827,4.827,0,0,1,312.9,81.9Z" fill="#d7151d" />
                                </g>
                            </g>
                        </g>
                    </g>
                    <g id="Group_56" data-name="Group 56">
                        <path id="Path_46" data-name="Path 46" d="M351.8,68.6a3.043,3.043,0,0,0-2.4,1.1,5.443,5.443,0,0,0-.9,3.5,5.443,5.443,0,0,0,.9,3.5,3.1,3.1,0,0,0,2.5,1.1,3.04,3.04,0,0,0,2.5-1,6.043,6.043,0,0,0,.9-3.8,5,5,0,0,0-.9-3.3A3.467,3.467,0,0,0,351.8,68.6Z" fill="#d7151d" />
                        <path id="Path_47" data-name="Path 47" d="M382.8,60H323a4.413,4.413,0,0,0-4.1,2.6l-4.2,8.9a4.669,4.669,0,0,0,0,4v.1a6.3,6.3,0,0,1,4.7-.4,6.887,6.887,0,0,1,3.1,11.4h60.2a4.588,4.588,0,0,0,4.6-4.6V64.6A4.442,4.442,0,0,0,382.8,60ZM340.5,79.1a6.544,6.544,0,0,1-2.4,1.9,8.992,8.992,0,0,1-3.6.6,10.3,10.3,0,0,1-4.3-.8,6.749,6.749,0,0,1-2.9-2.7,9.122,9.122,0,0,1-1.2-4.9,8.621,8.621,0,0,1,2.1-6.2,8.163,8.163,0,0,1,6-2.2A8.53,8.53,0,0,1,339,66a7.2,7.2,0,0,1,2.6,3.8l-4.4,1a3.832,3.832,0,0,0-.5-1.1,2.836,2.836,0,0,0-1-.9,3.194,3.194,0,0,0-1.4-.3,3.016,3.016,0,0,0-2.6,1.4,5.424,5.424,0,0,0-.7,3.2,6.524,6.524,0,0,0,.8,3.7,2.644,2.644,0,0,0,2.3,1,2.947,2.947,0,0,0,2.2-.8,5.482,5.482,0,0,0,1.1-2.3l4.4,1.3A7.276,7.276,0,0,1,340.5,79.1Zm18.8-1.4a6.319,6.319,0,0,1-2.8,2.8,8.818,8.818,0,0,1-4.5,1,10.018,10.018,0,0,1-4.5-.9,6.522,6.522,0,0,1-2.9-2.8,9.6,9.6,0,0,1-1.1-4.7,8.4,8.4,0,0,1,2.2-6.2,8.164,8.164,0,0,1,6.1-2.2c2.7,0,4.8.7,6.2,2.2a8.014,8.014,0,0,1,2.2,6.1A10.346,10.346,0,0,1,359.3,77.7Zm21.5,3.6h-4.1V68.9l-3.2,12.4h-3.7l-3.1-12.4V81.3h-4.1V65.1h6.6l2.5,9.9,2.5-9.9h6.6V81.3Z" fill="#d7151d" />
                    </g>
                </g>
            </svg>