<svg xmlns="http://www.w3.org/2000/svg" width="10.802" height="6.348" viewBox="0 0 10.802 6.348">

  <g id="Group_8" data-name="Group 8" transform="translate(-166.374 -286.7)">

    <path id="Path_11" data-name="Path 11" d="M177.177,287.792a1.44,1.44,0,0,1-.386.5l-4.538,4.538a.606.606,0,0,1-.665.181.845.845,0,0,1-.254-.164c-1.584-1.584-3.176-3.168-4.76-4.752a.594.594,0,0,1,.008-.895l.254-.254a.607.607,0,0,1,.977,0l1.3,1.3,2.577,2.577a.513.513,0,0,1,.074.1c.049-.041.074-.074.107-.1l3.89-3.89a.646.646,0,0,1,.657-.2c.016,0,.025.008.041.016a1.723,1.723,0,0,1,.7.755c0,.008.008.016.016.025C177.177,287.619,177.177,287.7,177.177,287.792Z" transform="translate(0 0)" fill="#707070"/>

  </g>

</svg>