<svg xmlns="http://www.w3.org/2000/svg" width="12.196" height="7.596" viewBox="0 0 12.196 7.596">
  <g id="Down_Arrow" data-name="Down Arrow" transform="translate(-340.295 251.308) rotate(-90)">
    <path id="Path_183" data-name="Path 183" d="M250.539,351.553a.179.179,0,0,1-.108.166c-.108.051-.179-.032-.249-.089-.389-.351-.772-.7-1.161-1.053q-2.173-1.962-4.352-3.918c-.281-.255-.274-.281.013-.536q2.69-2.412,5.373-4.837a2.379,2.379,0,0,1,.191-.166.189.189,0,0,1,.262.013c.089.089.032.185-.038.249-.23.217-.472.428-.708.645-1.538,1.385-3.07,2.776-4.614,4.154-.217.191-.179.281.013.453,1.742,1.557,3.472,3.127,5.207,4.69C250.437,351.388,250.533,351.445,250.539,351.553Z" fill="#333" stroke="#333" stroke-width="1.5"/>
  </g>
</svg>
