<svg xmlns="http://www.w3.org/2000/svg" width="274.507" height="241.946" viewBox="0 0 274.507 241.946">
  <g id="Icon" transform="translate(-99.78 -218.92)">
    <path id="Path_697" data-name="Path 697" d="M4375.415,330.072l84.23-31.976v90.859l-84.23,35.876Z" transform="translate(-4132.16 4.059)" fill="#f3f3f3"/>
    <path id="Path_698" data-name="Path 698" d="M4381.874,427.5l-54.1,24.927-77.686-39.648,47.517-22.043Z" transform="translate(-4139.677 8.444)" fill="#e3e3e3"/>
    <path id="Path_690" data-name="Path 690" d="M4353.743,304.212l-17.709,7.833,34.908,13.963Z" transform="translate(-4134.198 4.375)" fill="#e3e3e3"/>
    <path id="Path_691" data-name="Path 691" d="M4374.795,328.011l-28.1,44.954-52.275-19.582V337.547l44.783,18.05Z" transform="translate(-4136.352 5.607)" fill="#e3e3e3"/>
    <path id="Path_693" data-name="Path 693" d="M4349.106,304.963l-32.828-17.8,17.185-6.4,26.277,10.326-12.176,4.547,6.473,7.706Z" transform="translate(-4133.705 3.162)" fill="#e3e3e3"/>
    <path id="Path_696" data-name="Path 696" d="M0,29.553,23.074,56.389l85.907-30.063L90.7,0Z" transform="matrix(1, -0.017, 0.017, 1, 216.187, 270.847)" fill="#eee"/>
    <path id="Path_686" data-name="Path 686" d="M196.822,280.137l-39.181,16.121L121.78,325.517l80.355,32.319,36.082-28.777L239.34,432.63l84.706-38.712v-97.66" transform="translate(1.139 3.129)" fill="none" stroke="#333" stroke-width="1.5"/>
    <path id="Path_687" data-name="Path 687" d="M4378.859,328.134l-79.639-32.6" transform="translate(-4140.079 3.926)" fill="none" stroke="#333" stroke-width="1.5"/>
    <path id="Path_688" data-name="Path 688" d="M4357.338,302.755l-19.386,8.776" transform="translate(-4138.075 4.3)" fill="none" stroke="#333" stroke-width="1.5"/>
    <path id="Path_689" data-name="Path 689" d="M4298.1,336.63v56.323l82.065,37.271" transform="translate(-4140.137 6.053)" fill="none" stroke="#333" stroke-width="1.5"/>
    <path id="Path_694" data-name="Path 694" d="M234.762,328.769l-26.063-32.1,90.728-32.319,21.282,32.319Z" transform="translate(4.309 2.312)" fill="none" stroke="#333" stroke-width="1.5"/>
    <path id="Path_695" data-name="Path 695" d="M219.52,291.726l-32.18-13.5,54.294-14.7,26.1,10.8" transform="translate(5.583 3.135)" fill="none" stroke="#333" stroke-width="1.5"/>
    <g id="elements" transform="translate(99.78 219.67)">
      <path id="W" d="M4308.708,218.22h10.1l-.708,8.425,8.965-.756-.54,9.506" transform="translate(-4171.339 -218.22)" fill="none" stroke="#e3e3e3" stroke-width="1.5"/>
      <g id="O" transform="translate(58.898 6.29)" fill="none">
        <path d="M9.466,0A9.466,9.466,0,1,1,0,9.466,9.466,9.466,0,0,1,9.466,0Z" stroke="none"/>
        <path d="M 9.46576976776123 1.5 C 5.073430061340332 1.5 1.5 5.073430061340332 1.5 9.46576976776123 C 1.5 13.85811042785645 5.073430061340332 17.43153953552246 9.46576976776123 17.43153953552246 C 13.85811042785645 17.43153953552246 17.43153953552246 13.85811042785645 17.43153953552246 9.46576976776123 C 17.43153953552246 5.073430061340332 13.85811042785645 1.5 9.46576976776123 1.5 M 9.46576976776123 0 C 14.69356918334961 0 18.93153953552246 4.237969398498535 18.93153953552246 9.46576976776123 C 18.93153953552246 14.69356918334961 14.69356918334961 18.93153953552246 9.46576976776123 18.93153953552246 C 4.237969398498535 18.93153953552246 0 14.69356918334961 0 9.46576976776123 C 0 4.237969398498535 4.237969398498535 0 9.46576976776123 0 Z" stroke="none" fill="#333"/>
      </g>
      <g id="O-2" data-name="O" transform="translate(0 62.032)" fill="none">
        <path d="M4.207,0A4.207,4.207,0,1,1,0,4.207,4.207,4.207,0,0,1,4.207,0Z" stroke="none"/>
        <path d="M 4.207008838653564 1.499999046325684 C 2.714358806610107 1.499999046325684 1.499999046325684 2.714358806610107 1.499999046325684 4.207008838653564 C 1.499999046325684 5.699658870697021 2.714358806610107 6.914018630981445 4.207008838653564 6.914018630981445 C 5.699658870697021 6.914018630981445 6.914018630981445 5.699658870697021 6.914018630981445 4.207008838653564 C 6.914018630981445 2.714358806610107 5.699658870697021 1.499999046325684 4.207008838653564 1.499999046325684 M 4.207008838653564 -9.5367431640625e-07 C 6.530478954315186 -9.5367431640625e-07 8.414018630981445 1.883538722991943 8.414018630981445 4.207008838653564 C 8.414018630981445 6.530478954315186 6.530478954315186 8.414018630981445 4.207008838653564 8.414018630981445 C 1.883538722991943 8.414018630981445 -9.5367431640625e-07 6.530478954315186 -9.5367431640625e-07 4.207008838653564 C -9.5367431640625e-07 1.883538722991943 1.883538722991943 -9.5367431640625e-07 4.207008838653564 -9.5367431640625e-07 Z" stroke="none" fill="#e3e3e3"/>
      </g>
      <g id="O-3" data-name="O" transform="translate(255.576 83.435)" fill="none">
        <path d="M9.466,0A9.466,9.466,0,1,1,0,9.466,9.466,9.466,0,0,1,9.466,0Z" stroke="none"/>
        <path d="M 9.46576976776123 1.5 C 5.073430061340332 1.5 1.5 5.073430061340332 1.5 9.46576976776123 C 1.5 13.85811042785645 5.073430061340332 17.43153953552246 9.46576976776123 17.43153953552246 C 13.85811042785645 17.43153953552246 17.43153953552246 13.85811042785645 17.43153953552246 9.46576976776123 C 17.43153953552246 5.073430061340332 13.85811042785645 1.5 9.46576976776123 1.5 M 9.46576976776123 0 C 14.69356918334961 0 18.93153953552246 4.237969398498535 18.93153953552246 9.46576976776123 C 18.93153953552246 14.69356918334961 14.69356918334961 18.93153953552246 9.46576976776123 18.93153953552246 C 4.237969398498535 18.93153953552246 0 14.69356918334961 0 9.46576976776123 C 0 4.237969398498535 4.237969398498535 0 9.46576976776123 0 Z" stroke="none" fill="#333"/>
      </g>
      <g id="_" data-name="+" transform="translate(15.776 140.23)">
        <rect id="Rectangle_420" data-name="Rectangle 420" width="2" height="11" rx="1" transform="translate(4.224 -0.032)" fill="#333"/>
        <rect id="Rectangle_421" data-name="Rectangle 421" width="2" height="10" rx="1" transform="translate(10.224 3.968) rotate(90)" fill="#333"/>
      </g>
      <g id="_2" data-name="+" transform="translate(226.127 9.813)">
        <rect id="Rectangle_420-2" data-name="Rectangle 420" width="3" height="14" rx="1.5" transform="translate(5.873 0.385)" fill="#333"/>
        <rect id="Rectangle_421-2" data-name="Rectangle 421" width="2" height="15" rx="1" transform="translate(14.873 6.385) rotate(90)" fill="#333"/>
      </g>
    </g>
  </g>
</svg>