<svg xmlns="http://www.w3.org/2000/svg" width="16.345" height="14.54" viewBox="0 0 16.345 14.54">
  <g id="Wishlist" transform="translate(-317.168 -218.123)">
    <path id="Path_685" data-name="Path 685" d="M.6,5.42V5.232A4.59,4.59,0,0,1,5.152.6,4.516,4.516,0,0,1,8.384,1.965l.316.321a.11.11,0,0,0,.149,0l.278-.3a4.563,4.563,0,0,1,7.818,3.266V5.44a4.9,4.9,0,0,1-1.523,3.549L9.666,14.463a1.247,1.247,0,0,1-1.341.265,1.4,1.4,0,0,1-.465-.3L2.123,8.989A4.922,4.922,0,0,1,.6,5.42Z" transform="translate(316.568 217.523)" fill="#d12e27"/>
    <path id="Path_682" data-name="Path 682" d="M8.171,14.538a.969.969,0,0,1-.632-.238c-.659-.579-1.291-1.121-1.856-1.6A35.309,35.309,0,0,1,1.623,8.892,6.09,6.09,0,0,1,0,4.911,5.118,5.118,0,0,1,1.292,1.422,4.4,4.4,0,0,1,4.557,0,4.105,4.105,0,0,1,7.138.889a5.249,5.249,0,0,1,1.032,1.08A5.223,5.223,0,0,1,9.2.889,4.1,4.1,0,0,1,11.784,0a4.4,4.4,0,0,1,3.268,1.422,5.118,5.118,0,0,1,1.291,3.49,6.081,6.081,0,0,1-1.622,3.98,34.752,34.752,0,0,1-4.058,3.8c-.563.478-1.2,1.034-1.861,1.6a.966.966,0,0,1-.632.247ZM4.557.957A3.433,3.433,0,0,0,1.993,2.072,4.144,4.144,0,0,0,.961,4.912a5.118,5.118,0,0,0,1.4,3.369A32.915,32.915,0,0,0,6.3,11.972c.562.479,1.2,1.032,1.866,1.6.672-.584,1.308-1.128,1.873-1.611a33.7,33.7,0,0,0,3.941-3.688,5.114,5.114,0,0,0,1.4-3.356,4.139,4.139,0,0,0-1.034-2.84A3.444,3.444,0,0,0,11.782.957,3.161,3.161,0,0,0,9.8,1.644,4.66,4.66,0,0,0,8.685,2.921a.608.608,0,0,1-.832.2.63.63,0,0,1-.2-.2,4.659,4.659,0,0,0-1.1-1.277A3.167,3.167,0,0,0,4.557.957" transform="translate(317.169 218.123)" fill="#d12e27"/>
  </g>
</svg>