<svg xmlns="http://www.w3.org/2000/svg" width="15.828" height="13.753" viewBox="0 0 15.828 13.753">
  <g id="Wishlist" transform="translate(-318.018 -218.581)">
    <g id="Group_4" data-name="Group 4" transform="translate(318.618 219.194)">
      <g id="Group_83" data-name="Group 83" transform="translate(0 0)">
        <path id="Path_74" data-name="Path 74" d="M311.1,124.108v-.166a4.075,4.075,0,0,1,6.965-2.876l.283.283a.1.1,0,0,0,.133,0l.249-.266a4.175,4.175,0,0,1,3.59-1.147,4.085,4.085,0,0,1,3.408,4.023v.166a4.277,4.277,0,0,1-1.363,3.125l-5.153,4.82a1.13,1.13,0,0,1-1.2.233,1.26,1.26,0,0,1-.416-.266l-5.136-4.787a4.3,4.3,0,0,1-1.363-3.142Z" transform="translate(-311.1 -119.863)" fill="none" stroke="#414141" stroke-width="1.2"/>
      </g>
    </g>
  </g>
</svg>