<svg xmlns="http://www.w3.org/2000/svg" width="37.2" height="24.2" viewBox="0 0 37.2 24.2">
  <g id="Group_565" data-name="Group 565" transform="translate(-5 -5.9)">
    <path id="Path_20" data-name="Path 20" d="M42.2,19.8l-9.3-6.9-9.3-7-9.3,7L5,19.8h6.4l-2,10.3H32l1.9-10.3Z" fill="#d2232a"/>
    <path id="Path_21" data-name="Path 21" d="M23.8,14.2H21.7l-.3,1.9h1.1c3.2,0,3.2,2.6,2.8,4.8a6.677,6.677,0,0,1-1.4,3.6,3.622,3.622,0,0,1-3.1,1.2H19.3l2.1-11.5H19.3L18.7,18H17l-.6,3.4H14.5l-1.1,6.2h7.8c6,0,9.5-2.2,10.2-6.7.8-4.5-1.7-6.7-7.6-6.7" fill="#fff"/>
  </g>
</svg>
