<svg xmlns="http://www.w3.org/2000/svg" width="55.44" height="40.887" viewBox="0 0 55.44 40.887">
  <g id="Group_284" data-name="Group 284" transform="translate(3.5 -64.7)">
    <path id="Path_290" data-name="Path 290" d="M50.619,93.492V86.313a3.615,3.615,0,0,0-1.256-2.74l-.877-.758a1.956,1.956,0,0,1-.65-1.137L45.876,71.24a3.618,3.618,0,0,0-3.552-2.945H33.911V67.136A2.44,2.44,0,0,0,31.475,64.7H7.458a.812.812,0,1,0,0,1.624H31.464a.818.818,0,0,1,.812.812v26.1H12.4a7.148,7.148,0,0,0-8.847-.8v-2.2A2.44,2.44,0,0,0,1.113,87.8H-.555V67.136a.818.818,0,0,1,.812-.812H4.2a.812.812,0,1,0,0-1.624H.257a2.44,2.44,0,0,0-2.436,2.436V93.5A2.421,2.421,0,0,0-3.5,95.668v1.711a2.44,2.44,0,0,0,2.436,2.436H.441a7.164,7.164,0,0,0,14.055,0h9.02a.812.812,0,1,0,0-1.624h-8.89a7.109,7.109,0,0,0-.953-3.335H34.756a7.109,7.109,0,0,0-.953,3.335H26.765a.812.812,0,1,0,0,1.624h7.168a7.164,7.164,0,0,0,14.055,0H49.5a2.44,2.44,0,0,0,2.436-2.436V95.668a2.47,2.47,0,0,0-1.321-2.176Zm-1.624-.26h-2.48V91.391a.818.818,0,0,1,.812-.812h1.668ZM46.277,82.177H38.264a.485.485,0,0,1-.487-.487v-6.4a.485.485,0,0,1,.487-.487h6.627C44.88,74.8,46.255,82.112,46.277,82.177ZM33.9,69.919h8.413a1.984,1.984,0,0,1,1.949,1.624l.3,1.635H38.242a2.107,2.107,0,0,0-2.111,2.111v6.4A2.107,2.107,0,0,0,38.242,83.8h8.9c.087.087,1.137,1.007,1.137,1.007a2.016,2.016,0,0,1,.693,1.505v2.642H47.306a2.44,2.44,0,0,0-2.436,2.436v1.04a7.148,7.148,0,0,0-8.847.8H33.879L33.9,69.919ZM1.936,90.233v3H-.555V89.421H1.113A.82.82,0,0,1,1.936,90.233Zm-3.811,7.147V95.668a.818.818,0,0,1,.812-.812H1.264a7.109,7.109,0,0,0-.953,3.335H-1.064A.818.818,0,0,1-1.876,97.379Zm9.345,6.583a5.544,5.544,0,1,1,5.544-5.544A5.555,5.555,0,0,1,7.469,103.963Zm33.5,0a5.544,5.544,0,1,1,5.544-5.544A5.555,5.555,0,0,1,40.971,103.963Zm9.345-6.583a.818.818,0,0,1-.812.812H48.128a7.109,7.109,0,0,0-.953-3.335H49.5a.818.818,0,0,1,.812.812Z" fill="#333"/>
    <path id="Path_291" data-name="Path 291" d="M70.157,345.2a3.357,3.357,0,1,0,3.357,3.357A3.36,3.36,0,0,0,70.157,345.2Zm0,5.078a1.732,1.732,0,1,1,1.732-1.732A1.738,1.738,0,0,1,70.157,350.278Z" transform="translate(-62.688 -250.127)" fill="#333"/>
    <path id="Path_292" data-name="Path 292" d="M379.557,345.2a3.357,3.357,0,1,0,3.357,3.357A3.36,3.36,0,0,0,379.557,345.2Zm0,5.078a1.732,1.732,0,1,1,1.733-1.732A1.738,1.738,0,0,1,379.557,350.278Z" transform="translate(-338.586 -250.127)" fill="#333"/>
    <path id="Path_293" data-name="Path 293" d="M111.684,154.658H119.9a2.052,2.052,0,0,0,2.047-2.047v-4.873a2.36,2.36,0,0,0-.91-1.862l-3.811-2.956a2.341,2.341,0,0,0-2.88,0l-3.8,2.956a2.321,2.321,0,0,0-.845,1.321h-5.49a.812.812,0,1,0,0,1.624h5.425v1.841h-4.4a.812.812,0,1,0,0,1.624h4.4v.325a2.052,2.052,0,0,0,2.047,2.047Zm-.422-6.93a.708.708,0,0,1,.282-.574l3.8-2.956a.726.726,0,0,1,.888,0l3.8,2.956a.739.739,0,0,1,.282.574V152.6a.423.423,0,0,1-.422.422h-3.3v-2.7a.812.812,0,1,0-1.624,0v2.7h-3.3a.423.423,0,0,1-.422-.422Z" transform="translate(-95.325 -69.309)" fill="#333"/>
  </g>
</svg>
