<svg xmlns="http://www.w3.org/2000/svg" width="18" height="21" viewBox="0 0 18 21">
  <g id="Group_422" data-name="Group 422" transform="translate(-21.163 -17)">
    <path id="Path_544" data-name="Path 544" d="M10.838.556a4.948,4.948,0,0,1,4.285,7.426l-4.285,7.425L6.552,7.981A4.948,4.948,0,0,1,10.838.556Zm0,6.875A1.925,1.925,0,1,0,8.913,5.506,1.927,1.927,0,0,0,10.838,7.431Zm0-7.425A5.5,5.5,0,0,0,6.077,8.257l4.761,8.25L15.6,8.257A5.5,5.5,0,0,0,10.838.006h0Zm0,6.875a1.375,1.375,0,1,1,1.375-1.375,1.375,1.375,0,0,1-1.375,1.375Z" transform="translate(18.825 16.994)" fill="#333"/>
    <ellipse id="Ellipse_56" data-name="Ellipse 56" cx="9" cy="1" rx="9" ry="1" transform="translate(21.163 36)" fill="#dfdfdf"/>
  </g>
</svg>
