<svg id="Group_513" data-name="Group 513" xmlns="http://www.w3.org/2000/svg" xmlns:xlink="http://www.w3.org/1999/xlink" width="19.237" height="28.059" viewBox="0 0 19.237 28.059">
  <defs>
    <clipPath id="clip-path">
      <rect id="Rectangle_404" data-name="Rectangle 404" width="19.237" height="28.059" fill="none"/>
    </clipPath>
  </defs>
  <g id="Group_512" data-name="Group 512" clip-path="url(#clip-path)">
    <path id="Path_654" data-name="Path 654" d="M49,43.436H45.528a.559.559,0,0,0-.559.559v3.473a.559.559,0,0,0,.559.559H49a.559.559,0,0,0,.559-.559V43.995A.559.559,0,0,0,49,43.436m-.559,3.473H46.087V44.554h2.355Z" transform="translate(-42.505 -41.056)" fill="#333"/>
    <path id="Path_655" data-name="Path 655" d="M162.448,43.436h-3.473a.559.559,0,0,0-.559.559v3.473a.559.559,0,0,0,.559.559h3.473a.559.559,0,0,0,.559-.559V43.995a.559.559,0,0,0-.559-.559m-.559,3.473h-2.355V44.554h2.355v2.355Z" transform="translate(-149.734 -41.056)" fill="#333"/>
    <path id="Path_656" data-name="Path 656" d="M49,155.861H45.528a.559.559,0,0,0-.559.559v3.473a.559.559,0,0,0,.559.559H49a.559.559,0,0,0,.559-.559V156.42a.559.559,0,0,0-.559-.559m-.559,3.473H46.087v-2.355h2.355Z" transform="translate(-42.505 -147.319)" fill="#333"/>
    <path id="Path_657" data-name="Path 657" d="M162.448,155.861h-3.473a.559.559,0,0,0-.559.559v3.473a.559.559,0,0,0,.559.559h3.473a.559.559,0,0,0,.559-.559V156.42a.559.559,0,0,0-.559-.559m-.559,3.473h-2.355v-2.355h2.355v2.355Z" transform="translate(-149.734 -147.319)" fill="#333"/>
    <path id="Path_658" data-name="Path 658" d="M49,268.286H45.528a.559.559,0,0,0-.559.559v3.473a.559.559,0,0,0,.559.559H49a.559.559,0,0,0,.559-.559v-3.473a.559.559,0,0,0-.559-.559m-.559,3.473H46.087V269.4h2.355Z" transform="translate(-42.505 -253.583)" fill="#333"/>
    <path id="Path_659" data-name="Path 659" d="M15.737,17.282V.559A.559.559,0,0,0,15.178,0H.559A.559.559,0,0,0,0,.559V27.5a.559.559,0,0,0,.559.559H15.178a.444.444,0,0,0,.069-.006.776.776,0,0,0,.48-.289l0,0c.359-.46,3.507-4.551,3.507-6.556a3.953,3.953,0,0,0-3.5-3.922m-5.571,9.659H8.427V25.232a.559.559,0,1,0-1.118,0v1.709H5.571V22.262h4.6Zm1.118,0V21.7a.559.559,0,0,0-.559-.559H5.012a.559.559,0,0,0-.559.559v5.238H1.118V1.118h13.5v16.2a3.919,3.919,0,0,0-1.347.5v-2.55a.559.559,0,0,0-.559-.559H9.241a.559.559,0,0,0-.559.559v3.473a.559.559,0,0,0,.559.559h2.6a3.923,3.923,0,0,0-.494,1.91c0,1.547,1.871,4.332,2.893,5.738Zm.871-8.766H9.8V15.821h2.355Zm3.135,8.315c-1.241-1.682-2.83-4.2-2.83-5.287a2.83,2.83,0,1,1,5.659,0c0,1.088-1.589,3.6-2.83,5.287" fill="#333"/>
    <path id="Path_660" data-name="Path 660" d="M247.925,354.036a1.8,1.8,0,1,0,1.8,1.8,1.8,1.8,0,0,0-1.8-1.8m0,2.485a.684.684,0,1,1,.684-.684.684.684,0,0,1-.684.684" transform="translate(-232.636 -334.634)" fill="#333"/>
    <path id="Path_661" data-name="Path 661" d="M133.935,418.526a.559.559,0,0,0-.559.559v.056a.559.559,0,0,0,1.118,0v-.056a.559.559,0,0,0-.559-.559" transform="translate(-126.067 -395.59)" fill="#333"/>
  </g>
</svg>
