<svg xmlns="http://www.w3.org/2000/svg" width="17.999" height="14" viewBox="0 0 17.999 14">
  <path id="Path_64" data-name="Path 64" d="M5,39a4,4,0,1,1,4,4A4,4,0,0,1,5,39Zm4,2.5a2.5,2.5,0,1,0,0-5H8.909A1.245,1.245,0,0,1,9,37a2,2,0,0,1-2,2,1.245,1.245,0,0,1-.5-.091v.063A2.506,2.506,0,0,0,9,41.5ZM2.982,34.519A8.8,8.8,0,0,1,9,32a8.8,8.8,0,0,1,6.019,2.519,12.107,12.107,0,0,1,2.9,4.1.994.994,0,0,1,0,.769,12.67,12.67,0,0,1-2.9,4.1A8.794,8.794,0,0,1,9,46a8.791,8.791,0,0,1-6.018-2.519,12.719,12.719,0,0,1-2.9-4.1,1,1,0,0,1,0-.769,12.151,12.151,0,0,1,2.9-4.1ZM9,33.5a7.315,7.315,0,0,0-5,2.116A10.784,10.784,0,0,0,1.545,39,11.109,11.109,0,0,0,4,42.384,7.315,7.315,0,0,0,9,44.5a7.315,7.315,0,0,0,5-2.116A11.631,11.631,0,0,0,16.456,39,11.274,11.274,0,0,0,14,35.616,7.315,7.315,0,0,0,9,33.5Z" transform="translate(0 -32)" fill="#333"/>
</svg>