<svg xmlns="http://www.w3.org/2000/svg" width="20.156" height="16.125" viewBox="0 0 20.156 16.125">
  <path id="Path_65" data-name="Path 65" d="M4.746,2.922a8.6,8.6,0,0,1,5.332-1.914,8.868,8.868,0,0,1,6.066,2.538,12.2,12.2,0,0,1,2.926,4.129,1,1,0,0,1,0,.775,12.487,12.487,0,0,1-2.516,3.729l3.313,2.6a.756.756,0,0,1-.932,1.19L.29,1.351A.756.756,0,1,1,1.222.161Zm1.231.968L7.426,5.023a4.034,4.034,0,0,1,6.236,4.888l1.694,1.329a12.244,12.244,0,0,0,2.236-3.178,11.362,11.362,0,0,0-2.479-3.411,7.4,7.4,0,0,0-5.036-2.16,6.947,6.947,0,0,0-4.1,1.4Zm6.459,5.061a2.566,2.566,0,0,0,.161-.916,2.537,2.537,0,0,0-2.519-2.519c-.022,0-.041.028-.091.028a1.211,1.211,0,0,1,.091.476,2.039,2.039,0,0,1-.208.92Zm.3,4.1,1.32,1.039a8.279,8.279,0,0,1-3.974,1.024,8.862,8.862,0,0,1-6.066-2.538A12.825,12.825,0,0,1,1.085,8.45a1.007,1.007,0,0,1,0-.775A11.975,11.975,0,0,1,2.617,5.086L3.8,6.022A10.108,10.108,0,0,0,2.565,8.034a10.936,10.936,0,0,0,2.477,3.439,7.372,7.372,0,0,0,5.036,2.132,6.7,6.7,0,0,0,2.655-.551ZM6.047,8.034c0-.063,0-.151.009-.239L7.823,9.187a2.408,2.408,0,0,0,1.688,1.3l1.77,1.42a5.177,5.177,0,0,1-1.231.183A4.055,4.055,0,0,1,6.019,8.034Z" transform="translate(0 0)" fill="#333"/>
</svg>