<svg xmlns="http://www.w3.org/2000/svg" width="17.044" height="23.77" viewBox="0 0 17.044 23.77">
  <g id="Group_285" data-name="Group 285" transform="translate(-72.446 0)">
    <path id="Path_294" data-name="Path 294" d="M208.969,62.685a2.407,2.407,0,1,0-2.407,2.406A2.409,2.409,0,0,0,208.969,62.685Zm-3.886,0a1.479,1.479,0,1,1,1.479,1.477A1.479,1.479,0,0,1,205.083,62.685Z" transform="translate(-125.594 -57.481)" fill="#333"/>
    <path id="Path_295" data-name="Path 295" d="M89.463,15.039l-1.371-3.864a.464.464,0,0,0-.438-.309H81.786l.17-.265a1.049,1.049,0,0,1,.572-.431,5.252,5.252,0,0,0,2.617-1.857,5.208,5.208,0,1,0-8.371-.025,5.25,5.25,0,0,0,2.633,1.881,1.052,1.052,0,0,1,.574.432l.169.265H74.281a.464.464,0,0,0-.438.309l-1.371,3.864a.464.464,0,0,0,.438.62h.848v7.648a.464.464,0,0,0,.464.464H87.6a.464.464,0,0,0,.464-.464V15.658h.966a.464.464,0,0,0,.437-.62ZM79.684,9.284a4.3,4.3,0,0,1-3-4.133A4.312,4.312,0,0,1,80.865.929,4.276,4.276,0,0,1,82.25,9.284a1.978,1.978,0,0,0-1.076.817l-.206.322-.206-.322A1.982,1.982,0,0,0,79.684,9.284Zm-5.075,2.511h8.9L82.472,14.73h-8.9Zm.078,3.864H82.8a.464.464,0,0,0,.438-.309l.469-1.322v8.814H82.424V18.848a.464.464,0,0,0-.464-.464H76.478a.464.464,0,0,0-.464.464v3.993H74.687Zm2.255,7.183V19.313H81.5v3.529Zm10.19,0h-2.5V14.117l.437,1.232a.464.464,0,0,0,.438.309h1.622v7.183ZM85.838,14.73,84.8,11.795h2.531l1.041,2.935Z" transform="translate(0 0)" fill="#333"/>
    <path id="Path_296" data-name="Path 296" d="M192.092,443.995h-1.709a.464.464,0,1,0,0,.929h1.709a.464.464,0,1,0,0-.929Z" transform="translate(-112.019 -423.382)" fill="#333"/>
  </g>
</svg>