<svg xmlns="http://www.w3.org/2000/svg" width="66.127" height="17.078" viewBox="0 0 66.127 17.078">
  <g id="Group_570" data-name="Group 570" transform="translate(2 0)">
    <rect id="Rectangle_120" data-name="Rectangle 120" width="66.127" height="17.078" transform="translate(-2 0)" fill="#fff"/>
    <g id="Group_571" data-name="Group 571">
      <path id="Path_675" data-name="Path 675" d="M52.639,2.556H50.506a.261.261,0,0,0-.266.256v.936a2.606,2.606,0,0,0-2.274-1.193,4.26,4.26,0,0,0-4.213,4.5,4.193,4.193,0,0,0,4.212,4.384,2.591,2.591,0,0,0,2.275-1.061v.8a.262.262,0,0,0,.256.267h2.143A.252.252,0,0,0,52.9,11.2a.161.161,0,0,0,0-.031V2.82a.25.25,0,0,0-.236-.266h-.03ZM48.284,9.081a1.933,1.933,0,0,1-1.976-1.889c0-.052,0-.1,0-.155a1.968,1.968,0,1,1,3.928,0,1.908,1.908,0,0,1-1.955,2.044" fill="#3ebbd2"/>
      <path id="Path_676" data-name="Path 676" d="M4.942,2.554A2.586,2.586,0,0,0,2.673,3.732V2.821a.261.261,0,0,0-.257-.266H.267A.252.252,0,0,0,0,2.792a.14.14,0,0,0,0,.029v12.1a.252.252,0,0,0,.237.266.14.14,0,0,0,.029,0H2.4a.25.25,0,0,0,.266-.236.15.15,0,0,0,0-.03V10.593a3.008,3.008,0,0,0,2.275.843,4.205,4.205,0,0,0,4.212-4.4A4.247,4.247,0,0,0,4.942,2.554m-.32,6.51A1.909,1.909,0,0,1,2.667,7.02a1.968,1.968,0,1,1,3.928,0A1.933,1.933,0,0,1,4.777,9.062C4.725,9.065,4.674,9.066,4.622,9.064Z" fill="#3ebbd2"/>
      <path id="Path_677" data-name="Path 677" d="M38.771,2.554A2.586,2.586,0,0,0,36.5,3.732V2.821a.261.261,0,0,0-.257-.266H34.1a.25.25,0,0,0-.266.236.15.15,0,0,0,0,.03v12.1a.25.25,0,0,0,.236.266.15.15,0,0,0,.03,0h2.133a.251.251,0,0,0,.267-.236.15.15,0,0,0,0-.03V10.593a3.012,3.012,0,0,0,2.275.845,4.206,4.206,0,0,0,4.212-4.4,4.246,4.246,0,0,0-4.212-4.484m-.32,6.51A1.909,1.909,0,0,1,36.5,7.02a1.968,1.968,0,1,1,3.928,0,1.934,1.934,0,0,1-1.818,2.042C38.554,9.065,38.5,9.065,38.451,9.064Z" fill="#3ebbd2"/>
      <path id="Path_678" data-name="Path 678" d="M14.455,2.555a4.442,4.442,0,1,0-.247,8.881c.082,0,.165,0,.247,0a4.442,4.442,0,1,0,.107-8.882h-.107m0,6.527a2.073,2.073,0,1,1,1.97-2.171c0,.036,0,.073,0,.109a1.988,1.988,0,0,1-1.914,2.061Z" fill="#3ebbd2"/>
      <path id="Path_679" data-name="Path 679" d="M22.581,5.19c0-.3.249-.6.782-.6a3.058,3.058,0,0,1,1.582.6c.16.106.284.16.391.018l.8-1.048a.276.276,0,0,0,.018-.374,3.941,3.941,0,0,0-3.06-1.231c-1.564,0-3.072.892-3.072,2.653,0,2.932,4.017,2.381,4.017,3.554,0,.48-.514.569-.926.569A4.066,4.066,0,0,1,21.052,8.6c-.16-.089-.3-.124-.409,0L19.862,9.74a.267.267,0,0,0,0,.355A4.425,4.425,0,0,0,23.2,11.438c1.617,0,3.429-.863,3.429-2.641C26.632,5.581,22.581,6.417,22.581,5.19Z" fill="#3ebbd2"/>
      <path id="Path_680" data-name="Path 680" d="M32.793,2.555H31.371V.267A.25.25,0,0,0,31.135,0,.16.16,0,0,0,31.1,0H28.972A.252.252,0,0,0,28.7.236c0,.011,0,.021,0,.031V2.555H27.283a.252.252,0,0,0-.266.237.141.141,0,0,0,0,.029V4.439a.251.251,0,0,0,.236.266H28.7v6.466a.253.253,0,0,0,.236.267H31.1a.253.253,0,0,0,.267-.237.15.15,0,0,0,0-.03V4.706h1.422a.253.253,0,0,0,.267-.237V2.822a.253.253,0,0,0-.237-.267.15.15,0,0,0-.03,0" fill="#3ebbd2"/>
      <path id="Path_681" data-name="Path 681" d="M62.89,2.555H60.7a.326.326,0,0,0-.32.213l-2,5.479-2-5.478a.327.327,0,0,0-.32-.214h-2.15c-.2,0-.285.107-.214.3l3.427,8.579L55.662,14.88c-.106.195.019.3.214.3h2.079a.325.325,0,0,0,.32-.213L63.1,2.856c.07-.194-.019-.3-.215-.3" fill="#3ebbd2"/>
    </g>
  </g>
</svg>
