<svg xmlns="http://www.w3.org/2000/svg" width="25.934" height="25.934" viewBox="0 0 25.934 25.934">
  <g id="Group_22" data-name="Group 22" transform="translate(-285 -861)">
    <path id="Path_16" data-name="Path 16" d="M22.127,9.16A12.967,12.967,0,1,0,35.094,22.127,12.967,12.967,0,0,0,22.127,9.16Zm0,24.807a11.84,11.84,0,1,1,11.84-11.84A11.84,11.84,0,0,1,22.127,33.967Zm0-12.4A7.337,7.337,0,0,0,14.8,28.892a.563.563,0,1,0,1.127,0,6.2,6.2,0,0,1,12.4,0,.563.563,0,1,0,1.127,0A7.337,7.337,0,0,0,22.127,21.563Zm0-9.019a3.948,3.948,0,1,0,3.948,3.944,3.948,3.948,0,0,0-3.948-3.944Zm0,6.765a2.821,2.821,0,1,1,2.817-2.821,2.821,2.821,0,0,1-2.817,2.821Z" transform="translate(275.84 851.84)" fill="#d2232a"/>
  </g>
</svg>