<svg xmlns="http://www.w3.org/2000/svg" id="question-11798" width="15.078" height="15.078" viewBox="0 0 15.078 15.078">
  <g id="Group_252" data-name="Group 252" transform="translate(0)">
    <path id="Path_272" data-name="Path 272" d="M84.652,58a.335.335,0,0,1-.23-.579l1.647-1.555a1.946,1.946,0,0,0,.546-1.359v-.061A1.962,1.962,0,0,0,84.6,52.489,2,2,0,0,0,82.689,54.5a.335.335,0,0,1-.67,0,2.676,2.676,0,0,1,2.564-2.684,2.633,2.633,0,0,1,2.7,2.632v.061a2.619,2.619,0,0,1-.746,1.836l-1.657,1.565A.333.333,0,0,1,84.652,58Z" transform="translate(-77.113 -48.719)" fill="#868686"/>
    <path id="Path_273" data-name="Path 273" d="M120.769,145.833a.335.335,0,0,1-.335-.335v-1.134a.335.335,0,1,1,.67,0V145.5A.335.335,0,0,1,120.769,145.833Z" transform="translate(-113.23 -135.413)" fill="#868686"/>
    <path id="Path_274" data-name="Path 274" d="M118.136,187.067a.5.5,0,1,1,.1-.995.465.465,0,0,1,.094.028.484.484,0,0,1,.087.047.528.528,0,0,1,.075.062.5.5,0,0,1,0,.71.553.553,0,0,1-.075.064.608.608,0,0,1-.087.045.465.465,0,0,1-.094.028A.5.5,0,0,1,118.136,187.067Z" transform="translate(-110.597 -174.933)" fill="#868686"/>
    <path id="Path_275" data-name="Path 275" d="M7.539,15.078a7.539,7.539,0,1,1,7.539-7.539A7.548,7.548,0,0,1,7.539,15.078ZM7.539.67a6.869,6.869,0,1,0,6.869,6.869A6.877,6.877,0,0,0,7.539.67Z" fill="#868686"/>
  </g>
</svg>