<svg xmlns="http://www.w3.org/2000/svg" width="20.334" height="23.388" viewBox="0 0 20.334 23.388">
  <g id="Remove_" data-name="Remove         " transform="translate(-323.719 -220.806)">
    <path id="Path_188" data-name="Path 188" d="M27.648,16.474a.569.569,0,0,0-.587.548V27.368a.588.588,0,0,0,1.174,0V17.023A.569.569,0,0,0,27.648,16.474Zm-6.919,0a.568.568,0,0,0-.583.548V27.368a.588.588,0,0,0,1.174,0V17.023a.531.531,0,0,0-.173-.389.609.609,0,0,0-.418-.159Zm-5.041-1.509v13.5a2.9,2.9,0,0,0,.861,2.079,2.968,2.968,0,0,0,2.094.844H29.734a2.968,2.968,0,0,0,2.094-.848,2.9,2.9,0,0,0,.861-2.076v-13.5a2.1,2.1,0,0,0,1.648-2.292,2.193,2.193,0,0,0-2.223-1.819h-3v-.683a2.081,2.081,0,0,0-.674-1.539A2.392,2.392,0,0,0,26.791,8H21.586a2.392,2.392,0,0,0-1.644.629,2.082,2.082,0,0,0-.677,1.534v.683h-3a2.193,2.193,0,0,0-2.223,1.819,2.1,2.1,0,0,0,1.648,2.292ZM29.734,30.292H18.643a1.912,1.912,0,0,1-1.3-.565,1.665,1.665,0,0,1-.48-1.262V15.013H31.515V28.464a1.665,1.665,0,0,1-.48,1.262,1.912,1.912,0,0,1-1.3.565Zm-9.3-20.1a1.019,1.019,0,0,1,.322-.78,1.173,1.173,0,0,1,.828-.317h5.205a1.174,1.174,0,0,1,.817.307,1.022,1.022,0,0,1,.334.76v.683H20.435ZM16.263,11.95h15.85a1.079,1.079,0,0,1,.968.474.931.931,0,0,1,0,1.021,1.079,1.079,0,0,1-.968.474H16.263a1.079,1.079,0,0,1-.968-.474.931.931,0,0,1,0-1.021A1.079,1.079,0,0,1,16.263,11.95Zm7.925,4.524a.569.569,0,0,0-.587.548V27.368a.588.588,0,0,0,1.174,0V17.023A.569.569,0,0,0,24.189,16.474Z" transform="translate(309.697 212.806)" fill="#333"/>
  </g>
</svg>
