<svg xmlns="http://www.w3.org/2000/svg" width="28.467" height="23.125" viewBox="0 0 28.467 23.125">
  <g id="Group_123" data-name="Group 123" transform="translate(-39.499 -72.837)">
    <path id="Path_153" data-name="Path 153" d="M39.715,209.6a5.2,5.2,0,0,1,.688-1.713,7.785,7.785,0,0,1,2.635-2.342c.256-.154.527-.293.79-.424a.424.424,0,0,1,.615.146.411.411,0,0,1-.227.585,10.142,10.142,0,0,0-2.152,1.4,4.309,4.309,0,0,0-1.427,2.122,3.1,3.1,0,0,0,.717,2.825,8.264,8.264,0,0,0,3.044,2.225,19.377,19.377,0,0,0,5.679,1.6,27.252,27.252,0,0,0,6.03.146,22.524,22.524,0,0,0,4.508-.82.755.755,0,0,0,.161-.081l-1.376-.139c-.234-.022-.476-.037-.71-.059a.418.418,0,0,1-.417-.446.39.39,0,0,1,.468-.381c.966.081,1.925.168,2.891.256.439.037.871.088,1.3.132.19.015.359.1.373.293a.63.63,0,0,1-.146.454c-1.076.885-2.174,1.749-3.264,2.62a.412.412,0,0,1-.629-.051.421.421,0,0,1,.11-.6c.4-.329.812-.651,1.215-.973.066-.051.132-.11.2-.176-.886.183-1.742.4-2.613.542a27.085,27.085,0,0,1-5.862.322,24.59,24.59,0,0,1-5.65-.9,13.723,13.723,0,0,1-4.889-2.364,5.233,5.233,0,0,1-2-2.891c-.022-.1-.059-.183-.088-.278C39.715,210.292,39.715,209.948,39.715,209.6Z" transform="translate(0 -122.35)" fill="#333" stroke="#333" stroke-width="0.4"/>
    <path id="Path_154" data-name="Path 154" d="M136.847,82.058c0,1.186-.007,2.371,0,3.564a1.821,1.821,0,0,1-1.017,1.734q-2.272,1.251-4.537,2.518c-.549.307-1.1.607-1.647.915a1.777,1.777,0,0,1-1.844-.007c-2.064-1.149-4.12-2.3-6.191-3.44a1.814,1.814,0,0,1-1.01-1.712q.011-3.6,0-7.2a1.8,1.8,0,0,1,1.025-1.705q3.074-1.691,6.14-3.41a1.827,1.827,0,0,1,1.917-.007q3.1,1.723,6.191,3.44a1.8,1.8,0,0,1,.988,1.7C136.839,79.65,136.847,80.851,136.847,82.058Zm-.842-3.784c-.073.029-.11.044-.139.059q-3.271,1.822-6.55,3.63a.339.339,0,0,0-.183.351c.007,2.02,0,4.032,0,6.052a1.4,1.4,0,0,1-.037.351.372.372,0,0,1-.381.293.365.365,0,0,1-.4-.3,1.2,1.2,0,0,1-.029-.322V82.307a.334.334,0,0,0-.19-.351q-3.249-1.8-6.5-3.608c-.051-.029-.11-.037-.168-.066,0,.059-.007.1-.007.132v7.311a.937.937,0,0,0,.556.871q3.1,1.712,6.184,3.44a1.039,1.039,0,0,0,1.105,0q3.074-1.723,6.162-3.425a1.01,1.01,0,0,0,.571-.973q-.011-2.887-.007-5.774C136.005,79.343,136.005,78.824,136.005,78.275Zm-14.124-.739a1.47,1.47,0,0,0,.124.081c2.181,1.215,4.362,2.422,6.543,3.645a.331.331,0,0,0,.373-.022q3.173-1.767,6.352-3.527c.088-.044.168-.1.271-.161a1.006,1.006,0,0,0-.1-.073q-3.118-1.734-6.235-3.462a.958.958,0,0,0-.988.007c-.717.4-1.434.8-2.152,1.193C124.684,75.977,123.3,76.745,121.881,77.535Z" transform="translate(-74.98 0)" fill="#333" stroke="#333" stroke-width="0.4"/>
    <path id="Path_155" data-name="Path 155" d="M362.171,209.77a4.458,4.458,0,0,1-1.537,3.242,12.717,12.717,0,0,1-1.032.849c-.271.212-.512.183-.666-.044-.139-.2-.059-.424.176-.629a12.3,12.3,0,0,0,1.486-1.405,3.075,3.075,0,0,0-.1-4.128,8.2,8.2,0,0,0-2.686-2.027c-.081-.044-.168-.08-.242-.124a.4.4,0,0,1-.176-.542.4.4,0,0,1,.578-.183,15.353,15.353,0,0,1,1.354.768,6.712,6.712,0,0,1,2.357,2.393A3.816,3.816,0,0,1,362.171,209.77Z" transform="translate(-294.405 -122.048)" fill="#333" stroke="#333" stroke-width="0.4"/>
  </g>
</svg>
