<svg xmlns="http://www.w3.org/2000/svg" width="12.851" height="13.143" viewBox="0 0 12.851 13.143">
  <g id="Group_77" data-name="Group 77" transform="translate(-113.104 -86.922)">
    <path id="Path_66" data-name="Path 66" d="M126.092,88.914,115.225,99.566a.341.341,0,0,1-.476,0h0a.325.325,0,0,1,0-.467l10.867-10.652a.341.341,0,0,1,.476,0h0A.325.325,0,0,1,126.092,88.914Z" transform="translate(-1 -0.88)" fill="#fff" stroke="#fff" stroke-width="1"/>
    <path id="Path_67" data-name="Path 67" d="M125.061,99.685,114.744,88.92a.344.344,0,0,1,0-.472h0a.31.31,0,0,1,.452,0l10.317,10.765a.344.344,0,0,1,0,.472h0A.31.31,0,0,1,125.061,99.685Z" transform="translate(-1 -0.218)" fill="#fff" stroke="#fff" stroke-width="1"/>
    <path id="Path_66-2" data-name="Path 66" d="M126.6,88.951,115.251,100.3a.352.352,0,0,1-.5,0h0a.352.352,0,0,1,0-.5L126.1,88.453a.352.352,0,0,1,.5,0h0A.352.352,0,0,1,126.6,88.951Z" transform="translate(-1 -0.841)" fill="#333" stroke="#333" stroke-width="0.5"/>
    <path id="Path_67-2" data-name="Path 67" d="M126.1,100.3,114.753,88.951a.352.352,0,0,1,0-.5h0a.352.352,0,0,1,.5,0L126.6,99.8a.352.352,0,0,1,0,.5h0A.352.352,0,0,1,126.1,100.3Z" transform="translate(-1 -1)" fill="#333" stroke="#333" stroke-width="0.5"/>
  </g>
</svg>