<svg xmlns="http://www.w3.org/2000/svg" width="23.143" height="23.122" viewBox="0 0 23.143 23.122">
  <g id="search" transform="translate(-13.882 -13.885)">
    <g id="Group_81" data-name="Group 81" transform="translate(14.235 14.235)">
      <path id="Path_68" data-name="Path 68" d="M-64.779-73.79a8.915,8.915,0,0,1-7.3,2.393,8.7,8.7,0,0,1-6.008-3.378,9.173,9.173,0,0,1,.691-12.132,9.163,9.163,0,0,1,12.685-.134A9.27,9.27,0,0,1-64.28-74.2a1.415,1.415,0,0,1,.218.143q3.109,3.1,6.209,6.2c.276.276.308.437.134.624s-.37.16-.642-.116l-6.213-6.2A2.812,2.812,0,0,1-64.779-73.79ZM-71-88.855a8.324,8.324,0,0,0-8.4,8.446,8.248,8.248,0,0,0,8.415,8.393,8.24,8.24,0,0,0,8.406-8.415A8.321,8.321,0,0,0-71-88.855Z" transform="translate(80.051 89.525)" fill="#6e6e6e" stroke="#707070" stroke-width="0.7"/>
    </g>
  </g>
</svg>