<svg xmlns="http://www.w3.org/2000/svg" xmlns:xlink="http://www.w3.org/1999/xlink" width="24.233" height="26.658" viewBox="0 0 24.233 26.658">
  <defs>
    <clipPath id="clip-path">
      <rect id="Rectangle_197" data-name="Rectangle 197" width="24.233" height="26.658" fill="none"/>
    </clipPath>
  </defs>
  <g id="Group_244" data-name="Group 244" transform="translate(0 6)">
    <g id="Group_243" data-name="Group 243" transform="translate(0 -6)" clip-path="url(#clip-path)">
      <path id="Path_235" data-name="Path 235" d="M19.688,17.567A4.543,4.543,0,0,0,16.1,19.331l-7.36-4.266a4.545,4.545,0,0,0,0-3.472L16.1,7.324a4.494,4.494,0,1,0-.612-1.044L8.13,10.549a4.544,4.544,0,1,0,0,5.561l7.361,4.266a4.543,4.543,0,1,0,4.2-2.809m0-16.355a3.331,3.331,0,1,1-3.331,3.331,3.335,3.335,0,0,1,3.331-3.331M4.543,16.661a3.332,3.332,0,1,1,3.333-3.333,3.336,3.336,0,0,1-3.333,3.333m15.145,8.78a3.333,3.333,0,1,1,3.333-3.331,3.333,3.333,0,0,1-3.333,3.331" transform="translate(0 0)" fill="#333"/>
    </g>
  </g>
</svg>
