<svg xmlns="http://www.w3.org/2000/svg" width="19.112" height="11.5" viewBox="0 0 19.112 11.5">
  <g id="Group_126" data-name="Group 126" transform="translate(-41 -49.898)">
    <path id="Path_83" data-name="Path 83" d="M41,200.145a.59.59,0,0,1,.51-.187h18.1c.061,0,.126,0,.187,0a.311.311,0,0,1,.313.327c0,1.272,0,2.543,0,3.815a.305.305,0,0,1-.276.323,1.182,1.182,0,0,1-.224.014q-9.06,0-18.115,0a.508.508,0,0,1-.5-.22Zm11.79.467v.617c0,.22.009.435,0,.654a.323.323,0,0,1-.313.313.314.314,0,0,1-.323-.3,4.192,4.192,0,0,1-.014-.486v-.8H50.878a5.108,5.108,0,0,1,0,.538.524.524,0,0,1-.122.313.441.441,0,0,1-.323.056c-.154-.028-.2-.178-.206-.318-.009-.2,0-.393,0-.594H48.966v.21c0,.337,0,.673,0,1.01,0,.229-.136.365-.318.365s-.323-.145-.327-.374c0-.173,0-.351,0-.524v-.687H47.049v.57c0,.234-.131.383-.318.379s-.318-.154-.318-.383v-.566H45.142v1.113c0,.313-.108.472-.323.472s-.313-.154-.313-.477v-1.108H43.239c0,.2,0,.374,0,.556,0,.234-.126.383-.318.393s-.323-.136-.332-.374c-.009-.154,0-.313,0-.467,0-.042-.051-.112-.079-.117-.285-.009-.566,0-.855,0v3.165H59.47V200.6h-.94c0,.168,0,.332,0,.491a.775.775,0,0,1-.042.276.287.287,0,0,1-.337.178.317.317,0,0,1-.271-.332c-.009-.2,0-.407,0-.608H56.609c0,.425,0,.832,0,1.243a.319.319,0,0,1-.318.341.328.328,0,0,1-.318-.346c0-.341,0-.687,0-1.028v-.21H54.7v.514c0,.28-.117.435-.323.435s-.313-.154-.313-.439v-.51C53.631,200.612,53.224,200.612,52.79,200.612Z" transform="translate(0 -143.043)" fill="#333"/>
    <path id="Path_84" data-name="Path 84" d="M41,50.587c.033-.037.056-.1.093-.112.1-.037.234-.1.318-.065a.423.423,0,0,1,.21.266,1.617,1.617,0,0,1,.009.425V56a.648.648,0,0,1-.037.271c-.117.243-.388.224-.594-.033Z" transform="translate(0 -0.479)" fill="#333"/>
    <path id="Path_85" data-name="Path 85" d="M82.71,72.938H70.317c0,.07-.009.136-.009.206V74.4c0,.051.014.112-.009.15a.8.8,0,0,1-.215.276c-.117.075-.243,0-.323-.108-.491-.631-.977-1.258-1.459-1.893a.327.327,0,0,1,0-.43L69.766,70.5a.274.274,0,0,1,.332-.108.319.319,0,0,1,.21.323c0,.313,0,.622,0,.935v.626H82.705c0-.056.009-.117.009-.178V70.732a.337.337,0,0,1,.215-.341.306.306,0,0,1,.365.154q.652.848,1.314,1.7l.1.131a.344.344,0,0,1,0,.463l-1.426,1.847a.3.3,0,0,1-.355.14.315.315,0,0,1-.215-.337c0-.444,0-.884,0-1.328C82.71,73.092,82.71,73.022,82.71,72.938Zm-13.024.668V71.6c-.257.332-.491.631-.715.93a.135.135,0,0,0-.009.126C69.191,72.966,69.424,73.27,69.686,73.607ZM83.323,71.6v2.015c.276-.36.528-.683.776-1.005C83.846,72.274,83.6,71.956,83.323,71.6Z" transform="translate(-25.952 -19.516)" fill="#333"/>
    <path id="Path_86" data-name="Path 86" d="M436.836,52.932v2.655c0,.266-.168.421-.393.365a.289.289,0,0,1-.238-.276c0-.061,0-.126,0-.187V50.22a.316.316,0,1,1,.631,0c0,.351,0,.7,0,1.047C436.836,51.824,436.836,52.38,436.836,52.932Z" transform="translate(-376.725 0)" fill="#333"/>
  </g>
</svg>