<svg xmlns="http://www.w3.org/2000/svg" width="11.989" height="9.724" viewBox="0 0 11.989 9.724">
  <g id="Group_105" data-name="Group 105" transform="translate(-125.736 -281.8)">
    <path id="Path_75" data-name="Path 75" d="M131.726,281.543h-5.294a.716.716,0,0,1-.675-.646.972.972,0,0,1,.356-1,.577.577,0,0,1,.281-.088q5.337-.007,10.671,0c.367,0,.656.381.66.865s-.285.874-.664.874Q134.4,281.545,131.726,281.543Z" transform="translate(0 2)" fill="#333"/>
    <path id="Path_76" data-name="Path 76" d="M177.213,404.7h3.509a.69.69,0,0,1,.656.581,1.034,1.034,0,0,1-.244,1,.6.6,0,0,1-.446.163c-1.189,0-2.377,0-3.566,0h-3.438a.659.659,0,0,1-.645-.507,1.032,1.032,0,0,1,.112-.957.6.6,0,0,1,.532-.284C174.866,404.709,176.039,404.7,177.213,404.7Z" transform="translate(-45.464 -118.914)" fill="#333"/>
    <path id="Path_77" data-name="Path 77" d="M223.04,529.858h1.755a.746.746,0,0,1,.686.739.9.9,0,0,1-.5.976.583.583,0,0,1-.18.023h-3.509a.777.777,0,0,1-.69-.86c0-.5.289-.878.686-.878C221.87,529.853,222.455,529.858,223.04,529.858Z" transform="translate(-91.306 -240.072)" fill="#333"/>
  </g>
</svg>
