<svg xmlns="http://www.w3.org/2000/svg" width="65" height="19" viewBox="0 0 65 19">
  <g id="Group_567" data-name="Group 567" transform="translate(1.254 1)">
    <g id="Rectangle_428" data-name="Rectangle 428" transform="translate(-1.254 -1)" fill="#fff" stroke="#fff" stroke-width="1">
      <rect width="65" height="19" stroke="none"/>
      <rect x="0.5" y="0.5" width="64" height="18" fill="none"/>
    </g>
    <g id="Group_568" data-name="Group 568" transform="translate(0 0)">
      <path id="Path_670" data-name="Path 670" d="M10.082,4.608,12.6,2.088A7.135,7.135,0,0,0,1.418,3.507a7.132,7.132,0,0,1,8.664,1.1" fill="#ffc4be"/>
      <path id="Path_671" data-name="Path 671" d="M2.52,12.172,0,14.691a7.135,7.135,0,0,0,11.184-1.419,7.132,7.132,0,0,1-8.664-1.1" fill="#ff4b44"/>
      <path id="Path_672" data-name="Path 672" d="M10.083,4.608,2.519,12.172a7.131,7.131,0,0,0,8.664,1.1,7.132,7.132,0,0,0-1.1-8.666" fill="#ffc4be"/>
      <path id="Path_673" data-name="Path 673" d="M2.518,12.172l7.565-7.565a7.132,7.132,0,0,0-8.666-1.1,7.132,7.132,0,0,0,1.1,8.666" fill="#ff4b44"/>
      <path id="Path_674" data-name="Path 674" d="M24.61,10.163c0,1.573-1.2,3.109-3.665,3.109-2.888,0-3.813-1.87-3.887-2.888l2.388-.425A1.311,1.311,0,0,0,20.89,11.2c.722,0,1.074-.388,1.074-.8,0-.334-.222-.613-.907-.756L20,9.407c-1.961-.425-2.74-1.536-2.74-2.831A3.26,3.26,0,0,1,20.8,3.522c2.664,0,3.589,1.66,3.677,2.739l-2.333.426a1.209,1.209,0,0,0-1.282-1.132l-.032,0a.894.894,0,0,0-1,.8c0,.389.314.612.722.685l1.224.238c1.908.39,2.834,1.536,2.834,2.888ZM45.965,8.136a4.883,4.883,0,1,1-5.13-4.622,4.782,4.782,0,0,1,.508,0,4.883,4.883,0,0,1,4.623,4.622Zm-2.807.254a2.085,2.085,0,1,0-4.149,0,2.086,2.086,0,1,0,4.151,0ZM56.2.012a1.4,1.4,0,1,0,1.213,1.571,1.438,1.438,0,0,0,0-.359A1.4,1.4,0,0,0,56.2.012M54.614,13.274h2.814V5.052L54.614,3.506Zm5.869-7.921a1.4,1.4,0,1,0-1.212-1.572,1.446,1.446,0,0,0,0,.36,1.4,1.4,0,0,0,1.212,1.212m-1.225.706v7.214h2.814V7.605ZM48.275,3.506H46.581V6.33h1.694v3.84a3.1,3.1,0,0,0,3.1,3.1h1.4V10.459H52.4A1.389,1.389,0,0,1,51.087,9V6.33h1.694V3.506H51.088V1.568L48.267,0ZM28.644,12.514v4.264L25.83,15.234V3.506h2.813v.756a4.273,4.273,0,0,1,2.421-.756A4.72,4.72,0,0,1,35.6,8.389a4.718,4.718,0,0,1-4.535,4.883,4.274,4.274,0,0,1-2.42-.757Zm0-4.047a2.079,2.079,0,1,0,4.144-.082A2.08,2.08,0,1,0,28.644,8.3Z" fill="#ff453d"/>
    </g>
  </g>
</svg>
