<svg xmlns="http://www.w3.org/2000/svg" width="24.541" height="21.831" viewBox="0 0 24.541 21.831">
  <g id="Wishlist" transform="translate(-318.042 -218.288)">
    <path id="Path_683" data-name="Path 683" d="M12.268,21.829a1.454,1.454,0,0,1-.949-.357c-.989-.869-1.938-1.683-2.787-2.4a53.016,53.016,0,0,1-6.095-5.719A9.144,9.144,0,0,1,0,7.373,7.685,7.685,0,0,1,1.94,2.135,6.609,6.609,0,0,1,6.842,0a6.164,6.164,0,0,1,3.876,1.335,7.881,7.881,0,0,1,1.55,1.621A7.842,7.842,0,0,1,13.82,1.335,6.152,6.152,0,0,1,17.694,0,6.608,6.608,0,0,1,22.6,2.135a7.684,7.684,0,0,1,1.938,5.24A9.131,9.131,0,0,1,22.1,13.351a52.179,52.179,0,0,1-6.093,5.7c-.845.718-1.8,1.552-2.794,2.4a1.45,1.45,0,0,1-.949.372ZM6.842,1.437A5.154,5.154,0,0,0,2.993,3.111a6.222,6.222,0,0,0-1.55,4.264,7.684,7.684,0,0,0,2.1,5.058,49.421,49.421,0,0,0,5.918,5.543c.843.719,1.807,1.55,2.8,2.41,1.009-.876,1.964-1.694,2.812-2.419a50.6,50.6,0,0,0,5.918-5.537,7.679,7.679,0,0,0,2.1-5.038,6.215,6.215,0,0,0-1.552-4.264,5.171,5.171,0,0,0-3.852-1.69,4.746,4.746,0,0,0-2.976,1.031A7,7,0,0,0,13.04,4.386a.912.912,0,0,1-1.25.3.946.946,0,0,1-.3-.3A7,7,0,0,0,9.831,2.468,4.756,4.756,0,0,0,6.842,1.437" transform="translate(318.042 218.288)" fill="#d2232a"/>
  </g>
</svg>