<svg xmlns="http://www.w3.org/2000/svg" viewBox="0 0 80 80">
            <path
                d="M5.57,47.78v9.1a6.43,6.43,0,0,0,6.66,6.45H67.77a6.43,6.43,0,0,0,6.66-6.45v-9.1Z"
                fill="#4c4b4b"
            />
            <path
                d="M67.77 16.67H12.23a6.43 6.43 0 0 0-6.66 6.45v9.1h68.86v-9.1a6.43 6.43 0 0 0-6.66-6.45z"
                fill="#49a948"
            />
            <path d="M5.57 32.22h68.87v15.55H5.57z" fill="#fff"/>
            <path
                d="M67.55,63.33a6.62,6.62,0,0,0,6.88-6.45v-9.1H49.33Z"
                fill="#3f3f3f"
            />
            <path
                d="M67.77 16.67H12.23l18.44 15.55h43.76v-9.1a6.43 6.43 0 0 0-6.66-6.45z"
                fill="#369933"
            />
            <path
                d="M49.44 47.77h24.99V32.23H30.56l18.88 15.54z"
                fill="#cfe5e2"
            />
            <path
                d="M67.77 16.67H12.23l51.43 15.55h10.77v-9.1a6.43 6.43 0 0 0-6.66-6.45z"
                fill="#1c8417"
            />
            <path d="M74.43 35.34v-3.11H63.1l11.33 3.11z" fill="#bad3cf"/>
            <path
                d="M74.43,56.77a6.39,6.39,0,0,1-6.66,6.56H12.23a6.62,6.62,0,0,1-6.66-6.67"
                fill="#232222"
            />
            <path
                d="M22.23,16.67h-10a6.43,6.43,0,0,0-6.66,6.45V57a6.41,6.41,0,0,0,6.66,6.34h10Z"
                fill="#e73b36"
            />
            <path
                d="M22.23 32.23H5.57v-.12 15.78-.12h16.66V32.23z"
                fill="#db2c2c"
            />
            <path
                d="M5.57,47.78V57a6.41,6.41,0,0,0,6.66,6.34h10V47.78Z"
                fill="#cc2525"
            />
            <path
                d="M5.57,56.66c0,4.44,3,6.67,6.66,6.67h10V56.66Z"
                fill="#b70808"
            />
            <path d="M22.23 16.68h-10l10 8.44v-8.44z" fill="#cc2525"/>
            <path d="M22.23 16.68h-10l10 2.77v-2.77z" fill="#b70808"/>
        </svg>