<svg xmlns="http://www.w3.org/2000/svg" viewBox="0 0 80 80">
            <path
                d="M5.57,47.78v9.1a6.43,6.43,0,0,0,6.66,6.45H67.77a6.43,6.43,0,0,0,6.66-6.45v-9.1Z"
                fill="#359846"
            />
            <path
                d="M67.77 16.67H12.23a6.43 6.43 0 0 0-6.66 6.45v9.1h68.86v-9.1a6.43 6.43 0 0 0-6.66-6.45z"
                fill="#ea8634"
            />
            <path d="M5.57 32.22h68.87v15.55H5.57z" fill="#fcfbf0"/>
            <path
                d="M67.55,63.33a6.62,6.62,0,0,0,6.88-6.45v-9.1H49.33Z"
                fill="#21872f"
            />
            <path
                d="M67.77 16.67H12.23l18.44 15.55h43.76v-9.1a6.43 6.43 0 0 0-6.66-6.45z"
                fill="#e27423"
            />
            <path
                d="M49.44 47.77h24.99V32.23H30.56l18.88 15.54z"
                fill="#f7f4e2"
            />
            <path
                d="M67.77 16.67H12.23l51.43 15.55h10.77v-9.1a6.43 6.43 0 0 0-6.66-6.45z"
                fill="#d86619"
            />
            <path d="M74.43 35.34v-3.11H63.1l11.33 3.11z" fill="#f2e9c2"/>
            <path
                d="M74.43,56.77a6.39,6.39,0,0,1-6.66,6.56H12.23a6.62,6.62,0,0,1-6.66-6.67"
                fill="#167a20"
            />
            <path
                d="M40 33a7 7 0 1 0 7 7 7 7 0 0 0-7-7zm5.78 7.78c0 .11.11.33.22.33-.11.33-.11.67-.22 1-.12-.11-.34 0-.45.11s0 .33.11.45c-.11.33-.33.55-.44.88a.28.28 0 0 0-.45.12.33.33 0 0 0 0 .44l-.33.33-2.44-2.77-1-.78.11-.11 1 .78 3.22 1.66L42.22 41l-1.11-.44c0-.12 0-.12.11-.23l1.11.45 3.56.78-3.45-1.12-1.22-.22V40l1.22.11 3.67-.22-3.67-.22-1.22.11v-.22l1.22-.23 3.45-1.11-3.56.78-1.11.44c0-.11 0-.11-.11-.22l1.11-.44 3.11-2-3.22 1.66-1 .78-.11-.11 1-.78 2.44-2.77.34.33a.33.33 0 0 0 0 .44.62.62 0 0 0 .44.12 2.21 2.21 0 0 1 .44.88c-.11.12-.22.23-.11.45a.34.34 0 0 0 .45.11 3.27 3.27 0 0 1 .22 1c-.11 0-.22.22-.22.33s.22.34.33.22v.89c-.44.11-.55.23-.55.45zm-9.67-5.45a.33.33 0 0 0 .45 0 .66.66 0 0 0 .11-.44 2.19 2.19 0 0 1 .89-.44c.11.11.22.22.44.11a.34.34 0 0 0 .11-.45 3.27 3.27 0 0 1 1-.22c0 .11.22.22.33.22s.34-.22.23-.33h.89c0 .11.11.33.22.33s.33-.11.33-.22c.33.11.67.11 1 .22-.11.11 0 .34.11.45s.33 0 .45-.11c.33.11.55.33.88.44a.27.27 0 0 0 .12.44.31.31 0 0 0 .44 0l.33.34-2.77 2.44-.78 1-.11-.11.78-1 1.66-3.22-2.22 3-.44 1.11c-.12 0-.12 0-.23-.11l.45-1.11.78-3.56-1.12 3.45-.22 1.22H40l.11-1.22-.11-3.67-.22 3.67.11 1.22h-.22l-.23-1.22-1.11-3.45.78 3.56.45 1.11c-.12 0-.12 0-.23.11l-.44-1.11-2-3.11 1.67 3.22.77 1-.11.11-.78-1-2.77-2.44c.11 0 .22-.11.44-.23zm-.44 9l-.34-.33a.33.33 0 0 0 0-.45.66.66 0 0 0-.44-.11 2.19 2.19 0 0 1-.44-.89c.11-.11.22-.22.11-.44a.34.34 0 0 0-.45-.11 3.27 3.27 0 0 1-.22-1c.11 0 .22-.22.22-.33s-.22-.34-.33-.23v-.88c.11 0 .33-.12.33-.23S34 39 33.89 39c.11-.33.11-.67.22-1 .11.11.34 0 .45-.11s0-.33-.11-.44c.11-.34.33-.56.44-.89a.27.27 0 0 0 .44-.11c.12-.23.12-.34 0-.45l.34-.33 2.44 2.77 1 .78-.11.11-1-.77-3.22-1.67 3.11 2 1.11.44c0 .11 0 .11-.11.23l-1.11-.45-3.56-.78 3.45 1.11 1.22.23v.22l-1.22-.11-3.78.22 3.67.22 1.22-.11v.22l-1.22.23-3.45 1.11 3.56-.78 1.11-.45c0 .12 0 .12.11.23l-1.11.44-3.11 2 3.22-1.67 1-.77.11.11-1 .78zm3.89 1.78c0-.11-.12-.33-.23-.33s-.33.11-.33.22c-.33-.11-.67-.11-1-.22.11-.12 0-.34-.11-.45s-.33 0-.44.11c-.34-.11-.56-.33-.89-.44a.28.28 0 0 0-.11-.45.35.35 0 0 0-.45 0l-.33-.33 2.77-2.44.78-1 .11.11-.77 1-1.67 3.22 2-3.11.44-1.11c.11 0 .11 0 .23.11l-.45 1.11-.78 3.55 1.11-3.44.23-1.22h.22l-.11 1.22.22 3.67.22-3.67-.11-1.22h.22l.23 1.22 1.11 3.44-.78-3.55-.45-1.11c.12 0 .12 0 .23-.11l.44 1.11 2 3.11-1.67-3.22-.77-1 .11-.11.78 1 2.77 2.44-.33.33a.35.35 0 0 0-.45 0 .7.7 0 0 0-.11.45 2.19 2.19 0 0 1-.89.44c-.11-.11-.22-.22-.44-.11s-.22.22-.11.45a3.27 3.27 0 0 1-1 .22c0-.11-.22-.22-.33-.22s-.34.22-.23.33h-.88z"
                fill="#7d7dbc"
            />
            <path
                d="M41.55 41.33l.34.34v-.12l-.34-.22zM40 33a7.29 7.29 0 0 0-5.33 2.45l.66.55.34-.33.33-.34a.33.33 0 0 0 .45 0 .66.66 0 0 0 .11-.44c.11-.11.33-.11.44-.22l1.67 3.22.77 1-.11.11-.77-1-2.78-2.44 2.33 2.66.33.22.67.56h0L41 40.56l.11-.12 1 .78 3.22 1.67c-.11.11-.11.33-.22.44a.27.27 0 0 0-.44.11.33.33 0 0 0 0 .45h0l.66.55A7.13 7.13 0 0 0 47 39.89 7 7 0 0 0 40 33zm-.56 5.89L39 37.78l-2-3a.58.58 0 0 1 .45-.22c.11.11.22.22.44.11a.34.34 0 0 0 .11-.45c.11 0 .33-.11.44-.11l.78 3.56.45 1.11c-.11.11-.11.11-.23.11zm.67-.11l.11-1.22-.22-3.67-.22 3.67.11 1.22h-.22l-.23-1.22-1.11-3.45c.11 0 .34-.11.45-.11s.22.22.33.22.33-.22.22-.33h.89c0 .11.11.33.22.33s.34-.11.34-.22.33.11.44.11l-1.11 3.45-.22 1.22zm.22.11l.45-1.11.78-3.56c.11 0 .33.12.44.12-.11.11 0 .33.11.44s.33 0 .44-.11c.12.11.34.11.45.22l-2 2.89-.44 1.11zm5 3.33c-.11.11 0 .33.11.45-.11.11-.11.33-.22.44l-3-2.11-1.11-.44c0-.12 0-.12.11-.23l1.11.45 3.56.78c0 .11-.11.33-.11.44a.58.58 0 0 0-.45.22zm.78-2.66v.88c-.11 0-.33.12-.33.23s.11.33.22.33-.11.33-.11.44l-3.45-1.11-1.22-.22v-.22l1.22.11 3.67-.22-3.67-.22-1.22.11v-.23l1.22-.22 3.45-1.11c0 .11.11.33.11.45s-.22.22-.22.33c0 .55.11.67.33.67zm-.78-1.78a.34.34 0 0 0 .45.11c0 .11.11.33.11.44l-3.56.78-1.11.45c0-.12 0-.12-.11-.23l1.11-.44 3-2a.57.57 0 0 1 .22.44c-.11.12-.22.34-.11.45zm-.11-.78L42 38.67l-1 .77-.11-.11 1-.77 2.44-2.78-2.77 2.44-.78 1-.11-.11.77-1 1.67-3.22c.11.11.33.11.44.22a.28.28 0 0 0 .12.45.33.33 0 0 0 .44 0l.33.33.34.33a.35.35 0 0 0 0 .45.66.66 0 0 0 .44.11c-.11-.11 0 0 0 .22z"
                fill="#6060b2"
            />
        </svg>