<svg xmlns="http://www.w3.org/2000/svg" viewBox="0 0 80 80">
            <path
                d="M5.57,47.78v9.1a6.43,6.43,0,0,0,6.66,6.45H67.77a6.43,6.43,0,0,0,6.66-6.45v-9.1Z"
                fill="#db2727"
            />
            <path
                d="M67.77 16.67H12.23a6.43 6.43 0 0 0-6.66 6.45v9.1h68.86v-9.1a6.43 6.43 0 0 0-6.66-6.45z"
                fill="#359846"
            />
            <path d="M5.57 32.22h68.87v15.55H5.57z" fill="#fff"/>
            <path
                d="M67.55,63.33a6.62,6.62,0,0,0,6.88-6.45v-9.1H49.33Z"
                fill="#c61a1a"
            />
            <path
                d="M67.77 16.67H12.23l18.44 15.55h43.76v-9.1a6.43 6.43 0 0 0-6.66-6.45z"
                fill="#218930"
            />
            <path
                d="M49.44 47.77h24.99V32.23H30.56l18.88 15.54z"
                fill="#cfe5e2"
            />
            <path
                d="M67.77 16.67H12.23l51.43 15.55h10.77v-9.1a6.43 6.43 0 0 0-6.66-6.45z"
                fill="#167221"
            />
            <path d="M74.43 35.34v-3.11H63.1l11.33 3.11z" fill="#bad3cf"/>
            <path
                d="M74.43,56.77a6.33,6.33,0,0,1-6.66,6.56H12.23a6.62,6.62,0,0,1-6.66-6.67"
                fill="#b20b0b"
            />
            <g fill="#151515">
                <path
                    d="M5.57 23.12V57a6.54 6.54 0 0 0 .66 2.89l11.56-11.67V31.78L6.23 20.23a6.54 6.54 0 0 0-.66 2.89z"/>
                <path d="M5.57,32.22V57a6.54,6.54,0,0,0,.66,2.89L17.79,48.22v-16"/>
            </g>
        </svg>