<svg xmlns="http://www.w3.org/2000/svg" xmlnsV="https://vecta.io/nano" viewBox="0 0 80 80">
            <path d="M5.57,47.83v9a6.71,6.71,0,0,0,6.66,6.77H67.77a6.71,6.71,0,0,0,6.66-6.77v-9Z" fill="green"/>
            <path d="M67.77 16.29H12.23a6.7 6.7 0 0 0-6.66 6.77v9h68.86v-9a6.7 6.7 0 0 0-6.66-6.77z" fill="#ecffeb"/>
            <path d="M5.57 31.84h68.87v16.11H5.57z" fill="#db161b"/>
            <path d="M67.77,63.6a6.71,6.71,0,0,0,6.66-6.77v-9H49.33Z" fill="#016801"/>
            <path d="M67.77 16.29H12.23l18.44 15.77h43.76v-9a6.7 6.7 0 0 0-6.66-6.77z" fill="#def7dc"/>
            <path d="M49.44 48.05h24.99V31.84H30.56l18.88 16.21z" fill="#cc0917"/>
            <path d="M67.77 16.29H12.23l51.43 15.77h10.77v-9a6.7 6.7 0 0 0-6.66-6.77z" fill="#c9eac5"/>
            <path d="M74.43 35.28v-3.44H63.1l11.33 3.44z" fill="#b5081d"/>
            <path d="M74.43,56.83a6.71,6.71,0,0,1-6.66,6.77H12.23a6.71,6.71,0,0,1-6.66-6.77" fill="#015601"/>
            <path d="M22.56,16.29H12.23a6.7,6.7,0,0,0-6.66,6.77V56.94a6.7,6.7,0,0,0,6.66,6.77H22.56Z" fill="#e73b36"/>
            <path d="M22.56 31.84H5.57v.22 15.77.22h16.99V31.84z" fill="#db2c2c"/>
            <path d="M5.57,47.83v9a6.71,6.71,0,0,0,6.66,6.77H22.56V47.83Z" fill="#cc2525"/>
            <path d="M5.57,56.83a6.71,6.71,0,0,0,6.66,6.77H22.56V56.83Z" fill="#b70808"/>
            <path d="M22.56 16.29H12.23l10.33 8.77v-8.77z" fill="#cc2525"/>
            <path d="M22.56 16.29H12.23l10.33 3.11v-3.11z" fill="#b70808"/>
            <path
                d="M18.9 32.39c-.23-.22-.56-.44-1-.89h-.11a26.56 26.56 0 0 1-2.34-2.11l-.55-.55v-.23h0v-.44c.11-.22.33-.33.44-.55h0c0 .22.22.33.56.33a.84.84 0 0 0 .55-.22h.22V28a.25.25 0 0 0 .23.22h2a.24.24 0 0 0 .22-.22v-.89a.24.24 0 0 0-.22-.22h-2a.25.25 0 0 0-.23.22v.22h-.22c0-.11-.22-.22-.55-.22h0c1.22-2.11 2-3.89 1.89-4.22v-.11h0c-.34 0-1.45 1.66-2.78 3.89h.11a.11.11 0 0 1-.11.11h-.11v-.28c.11 0 .22-.11.22-.33s-.12-.17-.22-.33v-.11h0v-.23h-.22l-.23-.22h0V25h-.89v.33h0a.38.38 0 0 1-.11.22h-.22v.34c-.11 0-.22.11-.22.33s.11.22.22.33v.23h-.11a.11.11 0 0 0-.11-.11h.11c-1.33-2.23-2.44-3.89-2.78-3.89h0v.11c-.11.33.67 2.11 1.89 4.11a.84.84 0 0 0-.55.22h-.45v-.11a.24.24 0 0 0-.22-.22H9.12a.24.24 0 0 0-.22.22V28a.24.24 0 0 0 .22.22h2a.24.24 0 0 0 .22-.22v-.22h.23a.84.84 0 0 0 .55.22.89.89 0 0 0 .56-.22.38.38 0 0 0 .22.11l.33.33h0c0 .11 0 .22-.11.22h-2.78c-.55.11-1 .22-1 .34s.45.44 1 .55h0l.34.11h0c.22 0 .33.11.55.11h.11c.23 0 .34.11.56.11h.22l-1.89 1.67h-.11a7.27 7.27 0 0 1-1 .89c-.33.22-.44.33-.44.44a.11.11 0 0 0 .11.11H9a4.44 4.44 0 0 0 2.22-1.22h0l2-1.77h.56c.22 0 .33-.12.55-.23h0l.11-.11.11.11 2.23 2.11h0A3.71 3.71 0 0 0 19 32.84h.22a.11.11 0 0 0 .11-.12c.01.12-.21-.11-.43-.33zM15 26.73c0 .11-.11.11 0 0zm0-.56c0 .11 0 .11-.11.22v-.33c.11-.06.11 0 .11.11zm-2 0c0-.11 0-.11.11-.22l-.11.22c.11 0 .11.11.11.22a.34.34 0 0 1-.11-.22zm.11.56z"
                fill="#ecffeb"/>
            <path d="M13.68 24.28h.67v.33h-.67z" fill="#def7dc"/>
            <path
                d="M13.34 23.39h0a.55.55 0 0 0 .45.23v.22h.55v-.22c.22 0 .34-.11.45-.34h0a.22.22 0 1 0 0-.44.71.71 0 0 0-.56-.33.22.22 0 1 0-.44 0c-.23.11-.45.22-.45.44a.24.24 0 0 0-.22.22c-.12.11 0 .22.22.22zm5.56 9c-.23-.22-.56-.44-1-.89h-.11a26.56 26.56 0 0 1-2.34-2.11l-.55-.55v-.23h0v-.44c.11-.22.33-.33.44-.55h0c0 .22.22.33.56.33a.84.84 0 0 0 .55-.22h.22V28a.25.25 0 0 0 .23.22h2a.24.24 0 0 0 .22-.22v-.89a.24.24 0 0 0-.22-.22h-2a.25.25 0 0 0-.23.22v.22h-.22c0-.11-.22-.22-.55-.22h0c1.22-2.11 2-3.89 1.89-4.22v-.11h0c-.34 0-1.45 1.66-2.78 3.89h.11a.11.11 0 0 1-.11.11h-.11v-.28c.11 0 .22-.11.22-.33s-.12-.17-.22-.33v-.11h0v-.23h-.22l-.23-.22h0V25h-.55v5c.11 0 .33-.11.44-.11h0l.11-.11.11.11L16.79 32h0A3.74 3.74 0 0 0 19 33.17h.22a.11.11 0 0 0 .11-.11c.01-.22-.21-.45-.43-.67zm-4-6.39a.38.38 0 0 1 .11.22c0 .11 0 .11-.11.22zm0 .78h0c.11.11 0 .11 0 0z"
                fill="#c9eac5"/>
        </svg>