
<svg xmlns="http://www.w3.org/2000/svg" viewBox="0 0 80 80">
            <path
                d="M74.43,56.86a6.72,6.72,0,0,1-6.62,6.81H12.65A6.72,6.72,0,0,1,6,56.86V23.09a6.69,6.69,0,0,1,6.62-6.78H67.81a6.69,6.69,0,0,1,6.62,6.78Z"
                fill="#8d1b3d"
            />
            <path
                d="M12.23,16.31H67.77a6.71,6.71,0,0,1,6.66,6.78V56.86a6.74,6.74,0,0,1-6.66,6.81Z"
                fill="#8d1b3d"
            />
            <path
                d="M74.43 56.86a6.74 6.74 0 0 1-6.66 6.81H12.23a6.74 6.74 0 0 1-6.66-6.81zm-62.2-40.55h55.54a6.71 6.71 0 0 1 6.66 6.78v12.33z"
                fill="#8d1b3d"
            />
            <path
                d="M5.57 22.7v34.06a6.73 6.73 0 0 0 6.55 6.91h13l3.82-1.32L24 60.63l4.91-1.72L24 57.24l4.91-1.77L24 53.79 28.92 52 24 50.36l4.91-1.75L24 46.93l4.91-1.75L24 43.5l4.91-1.75-4.91-1.9 4.91-1.68L24 36.42l4.91-1.68L24 33l4.91-1.68L24 29.56l4.91-1.67L24 26.14l4.91-1.66L24 22.76l4.91-1.67L24 19.34l4.91-1.67-3.81-1.33h-13a6.62 6.62 0 0 0-6.53 6.36z"
                fill="#f4f4f4"
            />
            <g fill="#e1e1e1">
                <path
                    d="M29.34 27.93l-5-1.75 5-1.68-5-1.74 5-1.68-5-1.75 5-1.68-3.89-1.34H12.23l14.66 12.44 2.45-.82zm-5 32.69l5-1.72-5-1.67.28-.14h-19a6.56 6.56 0 0 0 6.66 6.6h13.17l3.89-1.32z"/>
                <path
                    d="M24.34 19.33l5-1.68-3.89-1.34h-4.22l4 1.34-5.11 1.68 5.11 1.75-5.11 1.68 5.11 1.74-5.11 1.68 5.11 1.75-5.11 1.66 5.11 1.75-5.11 1.68 5.11 1.75-5.11 1.66 5.11 1.75-5.11 1.68 5.11 1.9-5.11 1.75 5.11 1.67-5.11 1.75 5.11 1.68-5.11 1.75 5.11 1.66-5.11 1.75 5.11 1.68-5.11 1.77 5.11 1.68-5.11 1.72 5.11 1.73-4 1.32h4.22l3.89-1.32-5-1.73 5-1.72-5-1.68 5-1.77-5-1.68 5-1.75-5-1.66 5-1.75-5-1.68 5-1.75-5-1.67 5-1.75-5-1.9 5-1.68-5-1.75 5-1.66-5-1.75 5-1.68-5-1.75 5-1.66-5-1.75 5-1.68-5-1.74 5-1.68-5-1.75z"/>
            </g>
        </svg>