 <svg
        xmlns="http://www.w3.org/2000/svg"
        x="0"
        y="0"
        enableBackground="new 0 0 80 80"
        version="1.1"
        viewBox="0 0 80 80"
        xmlSpace="preserve"
      >
        <path
          d="M5.5 51.4V17.2c0-.3 0-.3.3-.3h68.4c.3 0 .3 0 .3.3v45.4c0 .3 0 .3-.3.3H17.1c-.1-.1-.3-.1-.4-.3L5.9 51.8l-.4-.4z"
          className="st0"
        ></path>
        <path
          d="M5.5 51.4c.1 0 .1.1.3.1L17 62.7s.1.1.1.3H5.7c-.1 0-.3 0-.3-.3.2-3.8.1-7.5.1-11.3z"
          className="st1"
        ></path>
        <path
          d="M49.5 29.7c0-.1 0-.3.3-.1.4.1.8.4 1.2.8l.3.3c0-.4 0-.8-.1-1.2v-.4c0-.3.1-.3.4-.4.1 0 .1.1.3.3.1.3.3.7.4 1.1 0 .3 0 .4-.3.3 0 .3.1.7.1 1 .4-.3.7-.5 1.1-.8l.1-.1c.3-.1.4-.4.4-.8 0-.3-.1-.7.3-.8.4-.1.4.4.5.5v.1c.4-.3.7-.5 1.1-.8-.1.4-.3.7-.5.8-.3.3-.5.4-.5.8 0 .1-.1 0-.3.1 0 .5.1 1.1.1 1.6 0 .7.1 1.4.1 2.1 0 .3.1.4.3.5.3.3.7.5 1 1 .4.4.7.8.8 1.5.1-.5.1-1 0-1.4-.1-2.1-.4-4-.5-6v-.5c0-.3.1-.4.3-.4.1 0 .3.1.3.3.3.4.4.8.4 1.4-.1 0-.1 0-.3-.1.1.7.1 1.4.3 2.1.1 1.2.3 2.5.3 3.7 0 .7-.1 1.4-.5 2.1-.5.8-1.4 1.2-2.2 1.5-.4.1-.8.3-1.4.1.3-.1.4-.3.7-.3.8-.3 1.6-.7 2.3-1.4.4-.3.3-.3.1-.7-.3-.7-.7-1.2-1.2-1.8-.1-.1-.3-.1-.3-.3v1.2c0 .5 0 1.1-.1 1.6 0 .1-.1.4-.3.5-.1-.5-.1-1.1-.1-1.5-.1-.7-.1-1.5-.1-2.2 0-.1 0-.3-.1-.4-.5-.4-1-1-1.5-1.4h-.1c.1 1.4.3 2.6.3 4 0 .4 0 .7-.1 1.1-.4 1.1-1.4 1.1-2.2.8-.1 0-.3-.3-.4-.4-.1-.1-.1-.4-.3-.5-.1-.4-.1-.4-.5-.3-.3.1-.4.4-.5.8-.1.3-.3.7-.4 1-.3.5-.7.7-1.2.4-.5-.3-.8-.8-.8-1.4 0-.3 0-.5-.1-.8-.1-.3 0-.7.1-1 .1-.4.4-.7.7-1.1.1-.1.1-.1 0-.3-.4-.4-1-.8-1.4-1.2V37.7c0 .3 0 .5-.3.7-.5-.6-.5-1.1-.5-1.8-.1-1-.1-2.1-.3-3 0-.1-.1-.3-.3-.4-.7-.5-1.2-1.2-1.8-1.9-.1-.3-.3-.4-.4-.7v-.4c.1-.1.3 0 .3 0 .4.1.8.4 1.1.8.1.1.1.1.1.4h-.4c.3.4.5.8 1 1.1v-1.6c0-.5-.1-1.1-.1-1.8 0-.4.1-.5.4-.7h.1c.3.4.5 1 .5 1.4 0 .1 0 .1-.1.1s-.1 0-.1.1c.1 1 .1 1.8.3 2.7 0 .1.1.3.3.4.5.5 1.2 1 1.8 1.5.1.1.1 0 .3 0 .4-.4.8-.7 1.2-1 .1-.1.1-.3.1-.4-.1-1.4-.3-2.6-.4-4v-.5c0-.1.1-.3.3-.4.1 0 .3.1.3.3.1.6.1 1 .3 1.1v.6c-.3.1-.1.3-.1.4.1.8.1 1.5.3 2.3.1 0 .1 0 .3-.1.3-.3.7-.5 1-.8.3-.1.3-.3 0-.4l-1-1c-.3-.3-.4-.4-.3-.8-.2.1-.3-.1-.2-.2zM33.6 38.4c.3.3.5.1.8 0 .8-.3 1.6-.8 2.3-1.4 0 0 .1 0 .1-.1.5-.4.5-.4.3-1.1-.1-.5-.4-1.1-.7-1.5-.1-.3-.3-.5-.3-.8 0-.1 0-.3.1-.3s.1.1.3.1c.8.8 1.1 1.9 1.2 3.2 0 .4.1.7.3 1.1.1.4.3.7.7.8.1.1.1.1.3-.1 0-.3.1-.4.4-.4.4-.3 1-.5 1.5-.7.1 0 .3 0 .3-.1h-2.7c-.3 0-.3-.1-.3-.3.1-.3.3-.5.5-.7.5-.4 1.2-.7 1.8-.8.1 0 .1 0 .3-.1 0 0 0-.1-.1-.1-.1-.1-.3-.4-.1-.5.1-.3.3-.5.7-.5.5 0 1.1.3 1.4.7.1.1.1.5-.1.7h-.1c-.1.1-.4 0-.7.1-.1.1 0 .4-.3.5-.3-.4-.3-.4-.8-.3-.4.1-1 .4-1.4.8H44.1c.1 0 .4 0 .4.1s-.1.3-.3.4c-.3.1-.4.3-.7.3-1.1.3-2.1.4-3.2.7-.3.1-.5.1-.7.3-.1.1-.4.3-.5.4.4.1.8.3 1.2.3.3.1.4.3.4.5s-.1.4-.4.4c-1.4-.1-2.5-.8-2.7-2.3 0-.1 0-.1-.1-.4-.4.7-1.1 1.2-1.6 1.6-.4.3-1 .5-1.4.7-.5.3-1 .1-1.4-.4-.1-.1-.1-.1-.3 0-.7.4-1.4.7-2.2.8-.5.1-1.1.3-1.8.3.1-.1.3-.1.4-.3 1.1-.4 2.2-1 3.2-1.5.3-.1.4-.3.4-.5.1-.4.3-.8.7-1.1-.1.4-.3.7-.3 1.1.4-.3.8-.5 1.2-.8.8-.7.7-.5.3-1.4-.1-.3-.3-.7-.4-1.1v-.1c0-.3 0-.5.1-.5s.3.1.4.3c.1.1.3.3.3.4 0 .1.1.3 0 .3s0 .1 0 .1c.1.3.1.4.3.7.3.7.1 1.1-.4 1.6 0 0-.7.4-1.4.9z"
          className="st2"
        ></path>
        <path
          d="M25.4 35.5c-.4.8-.4 1.8-.3 2.6 0 .1.1.1.3.1 1.2-.5 2.3-1 3.4-1.8l.4-.4c.1-.1.3-.4.1-.5-.3.1-.5.1-.8.3-.5.1-1.1-.1-1.1-.5-.1-.5.3-1.2.7-1.4.4-.3 1 0 1.4.4.3.4.3.4.7.1.3-.1.5-.4.8-.5.1.1 0 .3 0 .3 0 .1.1.4.3.4.1.1.3.1.4 0 .1 0 0-.1 0-.3-.1-1.6-.4-3.3-.5-4.9 0-.4 0-.7.3-.8.1 0 .1-.1.3 0 .3.4.5 1 .5 1.5 0 .1 0 .1-.1.1-.4-.2-.2.1-.2.1.1.7.1 1.4.3 2.1 0 .1.1.1.1.1.4-.3.8-.4 1.2-.7.1 0 .3-.1.4-.1 0 .1-.1.3-.3.3-.4.3-.8.4-1.2.7-.1 0-.1.1-.1.3 0 .3.1.7.1 1 .1-.3.3-.4.5-.5.1 0 .1-.1.3-.1.1 0 0 .1 0 .3 0 .3.1.4.4.4s.5-.1.5-.4v-.4c0-.1 0-.1.1-.1s.1.1.3.1c.1.4 0 1-.3 1.4-.1.1-.3.3-.4.3-.4.1-.5.1-.8-.1 0 0-.1-.1-.1-.3-.1.3-.3.5-.4 1-.1 1.2-.7 2.2-1.6 2.9-1.2.8-2.6 1.2-4.1 1.4-.5 0-1-.1-1.4-.4-.1-.1-.3-.1-.4-.1h-1.4c.4-.1.8-.3 1.2-.4.3 0 .3-.1.3-.4-.8-1.3-.5-2.3.2-3.1zM27.2 49.6H48.8c0-.1 0-.3-.1-.4-.3-.1-.1-.3 0-.4.1-.1.3-.3.4 0 .3.3.3.3 0 .5-.1.1-.1.1-.1.3 0 .1.1 0 .3 0H52c1 0 1.2.5 1 1.4-.1.3-.4.3-.8.3-.4-.1-1-.1-1.4 0-.1 0-.3.1-.4 0-.3-.3-.7-.1-1.1-.1-.1 0-.1.1-.3.1-.1.3-.3 0-.4 0-.1-.1-.3-.3 0-.4l.1-.1c.1-.1.1-.1 0-.3 0-.1-.1 0-.3 0H30.7c-.8 0-1.8 0-2.6-.3-.2 0-.7-.2-.9-.6z"
          className="st2"
        ></path>
        <path
          d="M28.3 31.5c-.1.7-.5 1.2-1.1 1.5-.2.1-.2.3-.2.4 0 .8.1 1.6.1 2.6 0 .4 0 .7-.1 1 0 .1-.1.3-.3.4-.1-.3-.1-.5-.1-.8-.1-1.1-.1-2.1-.3-3.2 0-.1-.1-.1-.1-.1-1-.1-1.2-1.1-1.1-1.8 0-.3.1-.4.1-.7-.1.1-.3.3-.3.5-.1.5-.3 1.1-.5 1.5 0 .1-.4.3-.8.3s-.7-.3-.7-.7c-.1-.4-.1-.8 0-1.2 0-.3.1-.4.4-.5-.3.5-.3 1-.1 1.5 0 .3.3.4.5.5.3 0 .4-.1.5-.4.3-.5.4-1.2.5-1.8.1-.4.5-.8 1-1 0 .4-.1.7-.1 1-.1.4-.1.8-.1 1.2.1.4.3.5.7.7 0-.7-.1-1.4-.1-2.1v-1-.4c0-.1.1-.3.4-.3.1 0 .1.1.3.3.3.4.4.8.4 1.2 0 .1 0 .1-.1.1s-.1 0-.1.1c0 .5.1 1.1.1 1.6 0 .3.1.1.3.1.5-.3 1-1.1.8-1.8 0-.4-.1-.7-.3-1v-.3c0-.1.1-.3.3-.3s.1.1.3.3c.1.4.3 1 .3 1.4 0 .4.1 1 .5 1.2.3.3.5.4 1 .4.4 0 .5-.3.4-.5 0-.3-.1-.4-.3-.7-.3-.4-.5-1-.7-1.5v-.4c0-.1.1-.3.3-.3.1 0 .3.1.3.1.1.1.3.4.4.7 0 .1 0 .1-.1.1s-.1.1-.1.3c0 .3.1.4.3.5.1.3.3.5.3 1 0 1-.5 1.5-1.5 1.2-.5-.1-1-.4-1.1-1-.1.2-.1.2-.2.1zM41.9 29.6h-.3c0 .4.3.7.4 1.1.1.3.3.7.3 1 0 .5-.4 1-.8 1.1-.5.1-1.1 0-1.4-.4-.1-.1-.3-.4-.4-.7-.1.3-.1.4-.3.7-.4.7-1.1 1-1.8.8-1-.1-1.2-.8-1.1-1.8 0-.3.1-.5.1-.8-.1.1-.3.3-.3.4-.1.4-.3.8-.4 1.2-.1.3-.1.4-.3.5-.3.3-.4.4-.8.3-.4-.1-.5-.3-.7-.7-.1-.5 0-1.1.3-1.6v.7c0 .3 0 .5.1.8.1.3.3.4.5.4.3 0 .4-.1.5-.3.1-.3.3-.5.3-.8.1-.5.4-1 .7-1.4.1-.1.3-.4.4-.4.1-.1.3 0 .3.1-.1.4-.3.8-.4 1.2-.1.5 0 1 .4 1.2.4.3 1.1.3 1.5-.1.7-.5.8-1.6.4-2.5-.3-.4-.1-.5 0-.8.1-.1.1-.1.3 0 .1.4.1.8.3 1.2 0 .4.1.8.3 1.2.3.5.7.7 1.2.7.4 0 .5-.3.4-.7-.1-.3-.3-.7-.4-1-.1-.3-.3-.5-.4-1v-.4c0-.1 0-.3.1-.3s.3 0 .3.1c.2.4.5.7.7 1z"
          className="st2"
        ></path>
        <path
          d="M34.9 30.8c.1 0 .1-.1.3 0 0 .1 0 .3-.1.4h-.3c-.1-.1-.1-.3 0-.4.1-.1.1-.4.3-.5v-.4c-.4.5-.8 1-1.4 1 .4-.3.7-.5 1-1 .1-.1.1-.3 0-.4-.1-.1-.1-.3-.1-.4 0-.1.1-.1.3-.1.1 0 .3 0 .4.3.1.1.1.4.3.5.1.1 0 .3 0 .5-.6.1-.6.2-.7.5z"
          className="st3"
        ></path>
        <path
          d="M22.9 35.1c.1-.1.3-.3.4-.3.1 0 .4-.1.5-.3.3-.1.5-.4.3-.8 0-.1 0-.3.1-.4.1-.1.3 0 .4 0l.4.4c.1.3.1.4-.1.4-.3 0-.4.1-.5.3-.4.4-.9.7-1.5.7z"
          className="st4"
        ></path>
        <path
          d="M46.5 31.5v.4c0 .1 0 .3.3.3.1 0 .1-.1.1-.3 0-.1 0-.3.1-.4 0-.1.1-.1.1-.1.1 0 0 .1 0 .1 0 .1 0 .4.3.5.1 0 .1 0 .1-.1v-.4c0-.1 0-.1.1-.1s.1.1.1.1c0 .1.1.3.1.4 0 .1 0 .3-.1.4-.1.1-.3.1-.4 0-.1 0-.1-.1-.3 0-.1.1-.4.1-.5 0-.1-.1-.3-.4-.1-.7l.1-.1z"
          className="st5"
        ></path>
        <path
          d="M38.3 33.4c0 .5 0 .5.3.7.1-.3 0-.5.1-.7 0 0 .1-.1.1 0 .2.6.2.6.4.7v-.5c0-.1 0-.1.1-.3.1 0 .1.1.1.1 0 .1.1.3.1.5 0 .1 0 .3-.1.4-.1.1-.3.1-.4 0-.1-.1-.3-.1-.4 0-.1.1-.3.1-.5-.1-.1-.1-.1-.5 0-.7.2.1.2.1.2-.1z"
          className="st4"
        ></path>
        <path
          d="M37.2 30.3v.4c0 .1.1.1.3.1.1 0 .1-.1.1-.1v-.4c0-.1.1-.1.1-.1.1 0 0 .1 0 .1 0 .3 0 .4.3.4.1-.3-.3-.5.1-.8 0 .3.1.4.1.7 0 .1 0 .3-.1.4-.1.1-.3.1-.4 0-.1-.1-.3-.1-.4 0-.1.1-.3.1-.4 0-.1-.1-.1-.4-.1-.7.3.1.4 0 .4 0zM23.2 35.7c0-.1.1-.3.3-.3.5-.3 1.1-.7 1.6-1 .1 0 .1-.1.3-.1.1 0 .1 0 .1.1v.3s-.1.1-.3.1c-.7.3-1.2.5-1.8.8.1.1-.1.1-.2.1zM43.5 38.6c-.3.3-.5.7-1.1.5-.1 0-.4 0-.4-.3 0-.1.1-.3.3-.4l.1-.1c0-.1-.3 0-.3-.1s.1-.3.3-.3h.1c.3 0 .5 0 .5.1s-.1.3-.3.4c-.1 0-.1.1-.3.1-.1 0-.3 0-.1.1 0 .1.1 0 .3 0 .1 0 .3 0 .4-.1.1.3.2.1.5.1z"
          className="st3"
        ></path>
        <path
          d="M48 29.7c-.1.1-.3.3-.4.3-.4.1-1 .4-1.4.5-.3.1-.4.1-.1.4h-.3c-.2 0-.3-.1-.3-.3 0-.1.1-.3.1-.3.5-.3 1.1-.4 1.6-.7.3.1.6.1.8.1zM42.9 29.6c0 .1 0 .1-.1.3-.1.3-.4.3-.7.3-.1-.1-.3-.4-.3-.7.1-.4.4-.5.7-.8 0 .1-.1.3-.1.4v.1c0 .1-.1.3-.1.4.1.1.3 0 .4 0h.2z"
          className="st6"
        ></path>
        <path
          d="M23.6 36.2c0 .3-.1.4-.3.5-.1.1-.1.3-.1.4.1.1.3 0 .4 0h.1c0 .1 0 .3-.1.3-.1.1-.4.3-.5.3-.3-.1-.3-.3-.3-.5.1-.6.5-.8.8-1z"
          className="st7"
        ></path>
        <path
          d="M53.8 38.6c0 .1-.1.3-.3.3-.7.3-1.4.5-1.9.7-.1 0-.1.1-.3 0 0-.1.1-.1.1-.1.7-.3 1.4-.5 2.1-.8 0-.1.1-.2.3-.1z"
          className="st6"
        ></path>
        <path
          d="M23.6 28.9c0 .1-.1.3-.1.4 0 0 0 .1-.1.1-.1.1-.1.3 0 .4s.3 0 .4 0h.1c-.1.3-.3.4-.5.4-.1 0-.3 0-.4-.1-.1-.3-.1-.5.1-.7.1-.2.2-.4.5-.5zM48.6 32.9c0 .1-.1.3-.3.3-.7.3-1.2.7-1.9 1 0 0-.1.1-.1 0s0-.1.1-.1c.7-.4 1.4-.8 2.1-1.1-.1-.1.1-.1.1-.1z"
          className="st7"
        ></path>
        <path
          d="M33.5 36.4c-.1-.3-.3-.5-.5-.7-.1 0-.1-.1-.1-.3.1-.1.1-.1.3 0 .1.1.3.1.3.3 0-.1.1-.3.1-.3.1-.1.4-.1.5 0v.3c0 .1-.1 0-.1 0-.1-.1-.3 0-.3.1-.1.2-.2.4-.2.6z"
          className="st6"
        ></path>
        <path
          d="M46.5 30c-.1-.3-.3-.5-.5-.7-.1 0-.1-.1 0-.3.1-.1.1-.1.3 0 .1.1.3.3.4.3 0-.1 0-.1.1-.3.1-.3.4-.3.5 0 0 .1.1.1 0 .3 0 .1-.1 0-.1 0-.3-.1-.3 0-.4.1-.1.2-.1.3-.3.6z"
          className="st7"
        ></path>
        <path
          d="M37.2 39.6c0-.3-.1-.5-.3-.7-.1-.3-.1-.4.1-.5 0 0 .1 0 .1-.1 0-.3.3-.1.3-.1.1 0 .3.1.3.3 0 .1-.1.3-.3.3h-.1c-.3 0-.3.1-.1.4.1 0 .3.1 0 .4z"
          className="st4"
        ></path>
        <path
          d="M42.9 35.7c.1 0 .3-.1.4-.1.4-.1.4-.3.4-.7 0-.1 0-.3.1-.3s.3-.1.3.1c0 .1.3.4 0 .5l-.4.4c-.2.1-.3.3-.8.1z"
          className="st8"
        ></path>
        <path
          d="M41.9 33.6c.1 0 .3-.1.3-.1.1 0 .1-.1.3-.1.1-.1.3-.1.1-.3 0-.1-.1 0-.3-.1.1-.1.1-.4.4-.4.1 0 .1 0 .3.1 0 .3 0 .4-.1.5-.4.4-.6.5-1 .4z"
          className="st9"
        ></path>
        <path
          d="M55.6 33c-.1-.1-.1-.3-.1-.4 0-.3-.1-.5-.5-.7-.1 0-.3-.1-.1-.3.1-.1.3-.1.4 0 .3.4.4.9.3 1.4z"
          className="st6"
        ></path>
        <path
          d="M49.4 39.6c0-.4-.3-.7-.5-.8-.1 0-.1-.1-.1-.3 0-.1.1-.1.3-.1.3.1.6.6.3 1.2z"
          className="st10"
        ></path>
        <path
          d="M37.9 30c0-.4-.1-.7-.5-.8-.1 0-.3-.1-.1-.3.1-.1.3-.1.4 0 .2.1.3.5.2 1.1z"
          className="st6"
        ></path>
        <path
          d="M29 30.5c.5 0 .8.4.7 1.1-.1-.4-.5-.7-.7-1.1z"
          className="st9"
        ></path>
        <path
          d="M33.1 30.4c-.1-.4-.4-.7-.7-1 0 0-.1-.1-.1-.3h.3c.3.3.4.5.4.8.1.4.1.4.1.5z"
          className="st11"
        ></path>
        <path
          d="M28.8 29.6v.1s0 .1.1.1.1-.1.1-.1v-.3c.1 0 .1.1.1.1 0 .1 0 .1.1.1 0 0 .1 0 .1-.1v-.3c.3.3.3.4-.1.5h-.6c.1.1.1.1.2-.1z"
          className="st12"
        ></path>
        <path
          d="M44.3 38.1c-.1.3-.1.5.1.7.1.1 0 .1-.1.3-.1 0-.3 0-.4-.1 0-.5 0-.8.4-.9z"
          className="st6"
        ></path>
        <path
          d="M49.4 30.1v-.3h.1s0 .2-.1.3c.1 0 0 0 0 0z"
          className="st13"
        ></path>
        <path
          d="M25.4 35.5c0-.1 0-.3.1-.1 0-.1 0 .1-.1.1z"
          className="st14"
        ></path>
        <path
          d="M48.8 34.7c.1.7.1 1.2.3 1.8.3-.1.3-.3.3-.5.1-.4.1-1 0-1.4 0-.3.1-.5.3-.7.4-.4.8-.7 1.4-1.1.1 0 .1-.1.3-.1 0 .4.1.8.1 1.4.1 1.2.3 2.3.4 3.6.1.8-.5 1.2-1.2 1-.3-.1-.4-.3-.5-.5-.1-.1-.1-.3-.3-.4-.1-.4-.3-.4-.7-.3-.3.1-.5.3-.7.5-.3.4-.4.8-.7 1.2-.1.3-.3.7-.7.5-.4 0-.5-.3-.7-.7-.3-.7-.3-.7.4-.8.5-.1 1.1-.3 1.4-1 .1-.5 0-.8-.4-1.2-.1-.1-.1-.1 0-.3.4-.5.8-.8 1-1zM49.4 30.1s.1 0 0 0c.1.3.3.4.4.5l1.1 1.1c.1.1.1.1 0 .3-.5.4-1 .8-1.5 1.4-.1-1.1-.3-2.1-.3-3.2.2.2.3.2.3-.1zM53.8 33.7c-.7-.5-1.2-1.1-1.8-1.5-.1-.1-.1-.1 0-.3l1.5-1.2c.1.9.3 1.9.3 3z"
          className="st0"
        ></path>
        <path
          d="M46.7 37.3c-.3 0-.3 0-.1-.3.1-.3.4-.5.7-.8 0 0 .1-.1.1 0 .3.1.4.3.4.5 0 .3-.1.3-.3.4-.3 0-.6.2-.8.2z"
          className="st15"
        ></path>
        <path
          d="M51.3 31.2c-.1-.1-.3-.3-.3-.4.3 0 .3 0 .3.4z"
          className="st16"
        ></path>
        <path
          d="M42.1 34.5c-.4.3-.5.3-.8.1 0 0-.1-.1-.1-.3s.1-.1.3-.1c.2 0 .4 0 .6.3z"
          className="st17"
        ></path>
        <path
          d="M26.1 38.8c.7-.4 1.4-.7 2.1-1.1.5-.3 1.1-.7 1.5-1.1.3-.3.4-.7.4-1.1 0-.3 0-.4.3-.5.1 0 .1-.1.3-.3 0 .1.1.1.1.3.1.3.4.3.5.4h.4v.5c-.1.5-.4 1.1-1 1.4-1.1.8-2.2 1.2-3.6 1.4-.2.1-.6.1-1 .1z"
          className="st0"
        ></path>
        <path
          d="M29 34.8c-.3 0-.5.1-.8 0-.1 0-.1 0-.1-.1s.1-.1.3-.1c.1-.2.4-.1.6.2z"
          className="st18"
        ></path>
        <path
          d="M50.5 50.4h1.2c.1 0 .1 0 .1.1 0 .3-.1.3-.4.3s-.5 0-.8-.1c-.1-.1-.3 0-.4 0-.3.4-.5.3-1 .3-.1 0-.3-.1-.3-.3 0-.1 0-.3.1-.3h1.5z"
          className="st19"
        ></path>
        <path
          d="M24.8 33.6c.1.1.1.3 0 .4h-.1c0-.2.1-.3.1-.4z"
          className="st20"
        ></path>
        <path
          d="M24.4 33.8c0-.1-.1-.3 0-.4h.1c.2.2.1.3-.1.4z"
          className="st21"
        ></path>
        <path
          d="M49.1 36.7c.1-.1.3-.3.4-.3.3-.1.4-.1.5-.3.3-.1.4-.4.3-.7-.1-.1 0-.3.1-.4.1-.1.3 0 .4 0l.4.4c.1.3.1.4-.1.4-.3 0-.4.1-.5.3-.4.5-.8.7-1.5.6z"
          className="st4"
        ></path>
        <path
          d="M51.2 35.3c.1.1.1.3.1.4h-.1c-.2-.2-.2-.2 0-.4z"
          className="st22"
        ></path>
        <path
          d="M50.8 35.6c0-.1-.1-.3 0-.4h.1c0 .1-.1.3-.1.4z"
          className="st23"
        ></path>
      </svg>